<svg width="360" height="205" viewBox="0 0 360 205" fill="none" xmlns="http://www.w3.org/2000/svg">
<g opacity="0.15">
<path fill-rule="evenodd" clip-rule="evenodd" d="M50.8125 97.0747L60.0141 79.8669L68.9796 97.0747H68.9797V97.0748V204.255H50.8125L50.8125 97.0748L50.8125 97.0747H50.8125Z" fill="#3D3344"/>
<rect width="12.375" height="77.1688" transform="matrix(-1 0 0 1 240.562 90.1204)" fill="#3D3344"/>
<rect width="14.0625" height="132.212" transform="matrix(-1 0 0 1 122.25 69.074)" fill="#3D3344"/>
<path fill-rule="evenodd" clip-rule="evenodd" d="M291.563 25.9028L301.219 0L310.875 25.9028V25.9028V165.67H291.563V25.9028H291.562L291.563 25.9028Z" fill="#3D3344"/>
<path fill-rule="evenodd" clip-rule="evenodd" d="M246.938 36.156H285.188V145.271H317.812V86.0103V86.01H317.813L338.906 67.1974L360 86.01H360V86.0103L360 145.271L360 163.143L360 204.631H0V163.143V145.271V107.645H46.5V145.271H73.125V60.6127H102V145.271H128.625V86.01H164.812V145.271H177V115.489H222.938V145.271H246.938V36.156ZM87.375 44.1513L102 60.6126H73.125L87.375 44.1513ZM199.99 97.0627L222.938 115.489H177L199.99 97.0627Z" fill="#492662"/>
<rect x="10.6875" y="123.578" width="8.55152" height="10.5823" fill="white"/>
<rect x="10.6875" y="142.391" width="8.55152" height="10.5823" fill="white"/>
<rect x="10.6875" y="161.204" width="8.55152" height="10.5823" fill="white"/>
<rect x="27.4484" y="123.578" width="8.55152" height="10.5823" fill="white"/>
<rect x="27.4484" y="142.391" width="8.55152" height="10.5823" fill="white"/>
<rect x="27.4484" y="161.204" width="8.55152" height="10.5823" fill="white"/>
<rect x="78.1875" y="69.3137" width="6.33446" height="10.5823" fill="white"/>
<rect x="78.1875" y="88.1265" width="6.33446" height="10.5823" fill="white"/>
<rect x="78.1875" y="106.939" width="6.33446" height="10.5823" fill="white"/>
<rect x="90.603" y="69.3137" width="6.33446" height="10.5823" fill="white"/>
<rect x="90.603" y="88.1265" width="6.33446" height="10.5823" fill="white"/>
<rect x="90.603" y="106.939" width="6.33446" height="10.5823" fill="white"/>
<rect x="78.1875" y="125.752" width="6.33446" height="10.5823" fill="white"/>
<rect x="78.1875" y="144.565" width="6.33446" height="10.5823" fill="white"/>
<rect x="78.1875" y="163.378" width="6.33446" height="10.5823" fill="white"/>
<rect x="90.603" y="125.752" width="6.33446" height="10.5823" fill="white"/>
<rect x="90.603" y="144.565" width="6.33446" height="10.5823" fill="white"/>
<rect x="90.603" y="163.378" width="6.33446" height="10.5823" fill="white"/>
<rect x="134.625" y="104.151" width="8.2348" height="10.5823" fill="white"/>
<rect x="134.625" y="122.964" width="8.2348" height="10.5823" fill="white"/>
<rect x="134.625" y="141.777" width="8.2348" height="10.5823" fill="white"/>
<rect x="150.765" y="104.151" width="8.2348" height="10.5823" fill="white"/>
<rect x="150.765" y="122.964" width="8.2348" height="10.5823" fill="white"/>
<rect x="150.765" y="141.777" width="8.2348" height="10.5823" fill="white"/>
<rect x="134.625" y="160.59" width="8.2348" height="10.5823" fill="white"/>
<rect x="150.765" y="160.59" width="8.2348" height="10.5823" fill="white"/>
<rect x="187.312" y="124.812" width="8.55151" height="10.3242" fill="white"/>
<rect x="187.312" y="143.166" width="8.55151" height="10.3242" fill="white"/>
<rect x="187.312" y="161.52" width="8.55151" height="10.3242" fill="white"/>
<rect x="204.073" y="124.812" width="8.55151" height="10.3242" fill="white"/>
<rect x="204.074" y="143.166" width="8.55151" height="10.3242" fill="white"/>
<rect x="204.074" y="161.52" width="8.55151" height="10.3242" fill="white"/>
<rect x="252.938" y="55.0437" width="8.86824" height="10.5823" fill="white"/>
<rect x="252.938" y="73.8564" width="8.86824" height="10.5823" fill="white"/>
<rect x="252.938" y="92.6694" width="8.86824" height="10.5823" fill="white"/>
<rect x="270.319" y="55.0437" width="8.86824" height="10.5823" fill="white"/>
<rect x="270.319" y="73.8564" width="8.86824" height="10.5823" fill="white"/>
<rect x="270.319" y="92.6694" width="8.86824" height="10.5823" fill="white"/>
<rect x="252.938" y="111.482" width="8.86824" height="10.5823" fill="white"/>
<rect x="252.938" y="130.295" width="8.86824" height="10.5823" fill="white"/>
<rect x="252.938" y="149.108" width="8.86824" height="10.5823" fill="white"/>
<rect x="270.319" y="111.482" width="8.86824" height="10.5823" fill="white"/>
<rect x="270.319" y="130.295" width="8.86824" height="10.5823" fill="white"/>
<rect x="270.319" y="149.108" width="8.86824" height="10.5823" fill="white"/>
<rect x="252.938" y="167.921" width="8.86824" height="10.5823" fill="white"/>
<rect x="270.319" y="167.921" width="8.86824" height="10.5823" fill="white"/>
<rect x="326.25" y="94.9771" width="8.55152" height="10.5823" fill="white"/>
<rect x="326.25" y="113.79" width="8.55152" height="10.5823" fill="white"/>
<rect x="326.25" y="132.603" width="8.55152" height="10.5823" fill="white"/>
<rect x="343.011" y="94.9771" width="8.55152" height="10.5823" fill="white"/>
<rect x="343.011" y="113.79" width="8.55152" height="10.5823" fill="white"/>
<rect x="343.011" y="132.603" width="8.55152" height="10.5823" fill="white"/>
<rect x="326.25" y="151.416" width="8.55152" height="10.5823" fill="white"/>
<rect x="343.011" y="151.416" width="8.55152" height="10.5823" fill="white"/>
</g>
</svg>
