<?xml version="1.0" encoding="UTF-8"?>
<svg id="svg3476" xmlns="http://www.w3.org/2000/svg" viewBox="0 0 370 400">
  <defs>
    <style>
      .cls-1, .cls-2, .cls-3, .cls-4, .cls-5 {
        stroke-width: 0px;
      }

      .cls-2 {
        fill: #2965f1;
      }

      .cls-3 {
        fill: #fff;
      }

      .cls-4 {
        fill: #264de4;
      }

      .cls-5 {
        fill: #ebebeb;
      }
    </style>
  </defs>
  <g id="layer1">
    <g id="g3013">
      <polygon id="polygon2989" class="cls-4" points="370 78.61 336.29 367.83 184.77 400 33.67 367.87 0 78.61 370 78.61"/>
      <polygon id="polygon2991" class="cls-2" points="307.43 349.41 336.24 102.26 185 102.26 185 375.41 307.43 349.41"/>
      <polygon id="polygon2993" class="cls-5" points="77.19 209.54 81.34 245.02 185 245.02 185 209.54 77.19 209.54"/>
      <polygon id="polygon2995" class="cls-5" points="185 137.74 184.84 137.74 68.85 137.74 73.06 173.22 185 173.22 185 137.74"/>
      <polygon id="polygon2997" class="cls-5" points="185 338.59 185 301.68 184.8 301.72 133.21 291.05 129.91 262.76 104.84 262.76 83.41 262.76 89.9 318.46 184.79 338.64 185 338.59"/>
      <path id="path2999" class="cls-1" d="m87.08,0h56.1v17.97h-32.64v17.97h32.64v17.97h-56.1V0Z"/>
      <path id="path3001" class="cls-1" d="m154.4,0h56.1v15.62h-32.64v3.12h32.64v35.94h-56.1v-16.41h32.64v-3.12h-32.64V0Z"/>
      <path id="path3003" class="cls-1" d="m221.72,0h56.1v15.62h-32.64v3.12h32.64v35.94h-56.1v-16.41h32.64v-3.12h-32.64V0Z"/>
      <polygon id="polygon3005" class="cls-3" points="241.88 245.02 236.5 291.03 184.84 301.71 184.84 338.62 279.8 318.46 280.5 312.47 291.38 219.07 292.51 209.54 300.87 137.74 184.84 137.74 184.84 173.22 250.11 173.22 245.89 209.54 184.84 209.54 184.84 245.02 241.88 245.02"/>
    </g>
  </g>
</svg>