<svg width="80" height="110" viewBox="0 0 80 110" fill="none" xmlns="http://www.w3.org/2000/svg">
<g clip-path="url(#clip0_31_2226)">
<path d="M8.93351 44.4885L5.25891 41.7031C5.25891 41.7031 39.1468 35.3066 74.7496 41.7031L69.1315 45.3143C69.1315 45.3143 55.0864 49.2473 53.4451 49.2473C51.8038 49.2473 8.94167 44.4885 8.94167 44.4885H8.93351Z" fill="#692600"/>
<path d="M3.42978 12.0511L14.5597 105.528C14.5597 107.998 25.951 110 39.9961 110C54.0412 110 65.4324 107.998 65.4324 105.528L76.5624 12.0511H3.42978Z" fill="white"/>
<path opacity="0.1" d="M61.0882 12.0511L61.0637 12.4291C60.4105 12.3031 59.7491 12.1771 59.0795 12.0511H3.42978L3.69108 14.2276C10.387 16.908 23.8115 19.7353 39.498 21.5129C47.0758 22.3737 54.2127 22.8776 60.3942 23.0525L52.5713 105.528C52.5713 107.607 44.5036 109.356 33.5696 109.86C34.5658 109.909 35.5866 109.937 36.6236 109.965C36.6971 109.965 36.7706 109.965 36.8359 109.965C37.873 109.986 38.9345 110 40.0042 110C54.0575 110 65.4406 107.998 65.4406 105.528L76.5705 12.0511H61.0882Z" fill="black"/>
<path d="M40.0042 44.1106C39.106 44.1106 38.2159 44.1106 37.3259 44.0966C37.0727 44.0966 36.8196 44.0966 36.5665 44.0896C35.9132 44.0826 35.2681 44.0756 34.623 44.0616C34.3617 44.0616 34.1086 44.0546 33.8473 44.0476C33.145 44.0336 32.4427 44.0196 31.7487 43.9986C31.5935 43.9986 31.4302 43.9916 31.275 43.9846C20.8555 43.6837 11.7344 42.8579 5.25891 41.7032L9.48061 70.5294C9.48061 72.9718 21.0025 74.9873 35.9295 75.2952C36.0193 75.2952 36.1092 75.2952 36.199 75.2952C37.4484 75.3162 38.7141 75.3372 39.9961 75.3372C56.8502 75.3372 70.5197 73.1817 70.5197 70.5224L74.7414 41.6962C66.5103 43.1658 54.0004 44.1036 39.9961 44.1036L40.0042 44.1106Z" fill="#007C92"/>
<path opacity="0.1" d="M55.0537 43.7327L51.126 70.5294C51.126 72.6499 42.405 74.4554 30.3115 75.0923C32.1161 75.1903 33.9942 75.2602 35.9377 75.2952C36.0275 75.2952 36.1173 75.2952 36.2071 75.2952C37.4565 75.3162 38.7222 75.3372 40.0042 75.3372C56.8584 75.3372 70.5279 73.1817 70.5279 70.5224L74.7496 41.6962C69.6215 42.613 62.8357 43.3198 55.0619 43.7257L55.0537 43.7327Z" fill="black"/>
<path d="M80 16.0402C80 18.8045 62.0925 21.037 39.9959 21.037C17.8994 21.037 0 18.7975 0 16.0402C0 13.2828 17.9075 11.0433 40.0041 11.0433C62.1006 11.0433 80.0082 13.2828 80.0082 16.0402H80Z" fill="#525252"/>
<path d="M78.5383 9.50378L80 10.1686V16.0402H0V10.1686L78.5383 9.50378Z" fill="#525252"/>
<path d="M80 10.1686C80 12.9329 62.0925 15.1654 39.9959 15.1654C17.8994 15.1654 0 12.9259 0 10.1686C0 7.41122 17.9075 5.17175 40.0041 5.17175C62.1006 5.17175 80.0082 7.41122 80.0082 10.1686H80Z" fill="#3D3D3D"/>
<path d="M73.8022 8.363L68.1188 3.52014H11.8893L6.01815 8.49597C5.92833 8.55895 5.85484 8.62893 5.78135 8.69192L5.72419 8.74091C5.5772 8.90187 5.49554 9.06283 5.49554 9.23079C5.49554 11.6102 20.937 13.5418 39.9877 13.5418C59.0385 13.5418 74.4799 11.6102 74.4799 9.23079C74.4799 8.93686 74.2431 8.64293 73.7858 8.37L73.8022 8.363Z" fill="#525252"/>
<path d="M32.859 3.51318H30.6379L17.8585 12.5271C18.4873 12.59 19.1405 12.653 19.8101 12.716L32.859 3.51318Z" fill="#696969"/>
<path d="M14.9678 12.1911L27.2655 3.52014H22.8233L11.3341 11.6242C12.4201 11.8272 13.6368 12.0161 14.976 12.1911H14.9678Z" fill="#696969"/>
<path d="M40.0041 7.02634C55.5314 7.02634 68.1188 5.45344 68.1188 3.51317C68.1188 1.5729 55.5314 0 40.0041 0C24.4767 0 11.8893 1.5729 11.8893 3.51317C11.8893 5.45344 24.4767 7.02634 40.0041 7.02634Z" fill="#3D3D3D"/>
<path d="M40.0041 5.77362C50.0024 5.77362 58.1076 4.76157 58.1076 3.51315C58.1076 2.26473 50.0024 1.25269 40.0041 1.25269C30.0058 1.25269 21.9006 2.26473 21.9006 3.51315C21.9006 4.76157 30.0058 5.77362 40.0041 5.77362Z" fill="#4A4A4A"/>
<path opacity="0.1" d="M40.0041 1.25269C37.1052 1.25269 34.3615 1.33667 31.9281 1.49063C38.722 2.08549 43.7603 3.7301 44.3728 5.71063C52.2609 5.46569 58.1076 4.5769 58.1076 3.51315C58.1076 2.26045 49.999 1.25269 40.0041 1.25269Z" fill="black"/>
<path d="M25.665 4.8918C28.9721 5.43067 34.1656 5.77359 40.0041 5.77359C45.8426 5.77359 51.0279 5.43067 54.3432 4.8918C51.036 4.35293 45.8426 4.01001 40.0041 4.01001C34.1656 4.01001 28.9803 4.35293 25.665 4.8918Z" fill="#242424"/>
</g>
<defs>
<clipPath id="clip0_31_2226">
<rect width="80" height="110" fill="white"/>
</clipPath>
</defs>
</svg>
