<svg width="1400" height="532" viewBox="0 0 1400 532" fill="none" xmlns="http://www.w3.org/2000/svg">
<path d="M135.371 47.7465C144.935 19.2227 171.655 0 201.74 0H1329.95C1373.34 0 1406.28 39.0829 1398.94 81.854L1331.58 473.854C1325.81 507.448 1296.68 532 1262.59 532H70.3013C22.4701 532 -11.2731 485.096 3.93283 439.746L135.371 47.7465Z" fill="url(#paint0_linear_31_2225)"/>
<path d="M135.371 47.7465C144.935 19.2227 171.655 0 201.74 0H1329.95C1373.34 0 1406.28 39.0829 1398.94 81.854L1331.58 473.854C1325.81 507.448 1296.68 532 1262.59 532H70.3013C22.4701 532 -11.2731 485.096 3.93283 439.746L135.371 47.7465Z" fill="url(#paint1_linear_31_2225)" fill-opacity="0.2"/>
<defs>
<linearGradient id="paint0_linear_31_2225" x1="683.933" y1="-18.188" x2="683.933" y2="532" gradientUnits="userSpaceOnUse">
<stop offset="0.865" stop-color="#B98063"/>
<stop offset="1" stop-color="#865D48"/>
</linearGradient>
<linearGradient id="paint1_linear_31_2225" x1="168.775" y1="152.849" x2="1223.38" y2="387.008" gradientUnits="userSpaceOnUse">
<stop offset="0.9" stop-color="#B98063"/>
<stop offset="1" stop-color="#865D48"/>
</linearGradient>
</defs>
</svg>
