<svg width="382" height="593" viewBox="0 0 382 593" fill="none" xmlns="http://www.w3.org/2000/svg">
<path d="M33.2625 593H348.745C367.11 593 382.007 578.108 382.007 559.733V129.785C382.007 111.417 367.118 96.5182 348.745 96.5182H33.2625C14.8896 96.5182 0 111.41 0 129.785V559.733C0 578.108 14.8896 593 33.2625 593Z" fill="#FA9F45"/>
<path d="M351.22 126.005H35.9307V555.886H351.22V126.005Z" fill="white"/>
<path d="M238.707 153.846C244.184 153.846 248.639 149.569 248.957 144.173H135.74C136.059 149.569 140.521 153.846 145.99 153.846H238.707Z" fill="black"/>
<path d="M248.987 143.558V94.5835C248.987 88.9055 244.384 84.3024 238.707 84.3024H145.99C140.313 84.3024 135.703 88.9055 135.703 94.5835V143.558C135.703 143.765 135.725 143.966 135.733 144.166H248.95C248.965 143.966 248.987 143.765 248.987 143.558Z" fill="#2D2D2D"/>
<path d="M229.703 25.5064C229.703 18.4201 225.634 11.8674 218.23 7.04187C211.27 2.49801 202.073 0 192.341 0C182.61 0 173.413 2.49801 166.453 7.04187C159.057 11.8674 154.98 18.4201 154.98 25.5064C154.98 32.5261 158.983 39.0268 166.253 43.8375L156.418 151.645H228.272L218.43 43.8375C225.7 39.0194 229.703 32.5186 229.703 25.5064ZM217.548 36.2397C214.309 39.0713 211.752 42.7924 211.752 42.7924L212.152 47.1806L221.09 145.092H163.6L172.538 47.1731L172.938 42.785C172.938 42.785 170.374 39.0565 167.143 36.2323C163.63 33.1561 161.54 29.4499 161.54 25.499C161.54 15.2253 175.644 6.55265 192.341 6.55265C209.039 6.55265 223.143 15.2327 223.143 25.499C223.151 29.4499 221.061 33.1635 217.548 36.2397Z" fill="#D1CFD4"/>
<path d="M135.74 144.173C136.059 149.569 140.521 153.846 145.99 153.846H238.707C244.177 153.846 248.639 149.569 248.957 144.173H221.276V149.058H163.244V144.173H135.74Z" fill="black"/>
</svg>
