<svg width="340" height="250" viewBox="0 0 340 250" fill="none" xmlns="http://www.w3.org/2000/svg">
<path d="M20.5739 250C9.14152 250 0 240.754 0 229.702V10.4961C0 4.69961 4.86038 0 10.8552 0H142.244C148.239 0 153.099 4.69961 153.099 10.4961V13.8566H281.511C287.506 13.8566 292.366 18.5562 292.366 24.3527V48.1589C292.364 48.1589 112.703 250 20.5739 250Z" fill="#FBB92F"/>
<path d="M45.6066 230.07H23.2283C21.7833 230.07 20.6113 229.135 20.6113 227.983V36.0034C20.6113 34.8509 21.7833 33.9161 23.2283 33.9161H320.663C322.108 33.9161 323.28 34.8509 323.28 36.0034V49.2696V227.983L45.6066 230.07Z" fill="white"/>
<path d="M323.28 215.196V246.354C323.28 248.367 314.073 250 302.71 250H6.50879C17.8677 250 27.079 248.368 27.079 246.354V215.196C27.079 214.141 31.9013 213.287 37.8493 213.287H312.512C318.458 213.287 323.28 214.141 323.28 215.196Z" fill="#F9C32D"/>
<path d="M340 58.655V229.953C340 241.023 330.721 250 319.268 250H191.567C209.089 248.267 226.536 245.849 243.853 242.744C261.549 239.572 280.171 235.139 292.737 222.686C301.129 214.368 305.956 203.176 308.331 191.785C310.708 180.393 310.81 168.688 310.902 157.068C311.193 120.764 311.483 84.4631 311.776 48.1589H329.143C335.14 48.1589 340 52.8565 340 58.655Z" fill="#FBB92F"/>
</svg>
