<svg width="288" height="367" viewBox="0 0 288 367" fill="none" xmlns="http://www.w3.org/2000/svg">
<path d="M17.4273 367C7.7434 367 0 353.427 0 337.202V15.4083C0 6.89903 4.11703 0 9.19497 0H120.489C125.567 0 129.684 6.89903 129.684 15.4083V20.3415H238.456C243.534 20.3415 247.651 27.2405 247.651 35.7498V70.6973C247.65 70.6973 95.4658 367 17.4273 367Z" fill="#FBB92F"/>
<path d="M38.6319 337.743H19.6762C18.4522 337.743 17.4595 336.371 17.4595 334.679V52.8532C17.4595 51.1613 18.4522 49.789 19.6762 49.789H271.621C272.845 49.789 273.838 51.1613 273.838 52.8532V72.328V334.679L38.6319 337.743Z" fill="white"/>
<path d="M273.838 315.907V361.647C273.838 364.603 266.039 367 256.414 367H5.51367C15.1354 367 22.9378 364.603 22.9378 361.647V315.907C22.9378 314.359 27.0227 313.105 32.0609 313.105H264.716C269.753 313.105 273.838 314.359 273.838 315.907Z" fill="#F9C32D"/>
<path d="M288 86.1055V337.572C288 353.822 280.139 367 270.439 367H162.269C177.11 364.456 191.889 360.906 206.558 356.348C221.547 351.691 237.321 345.185 247.966 326.903C255.074 314.692 259.162 298.263 261.174 281.54C263.187 264.817 263.274 247.634 263.352 230.575C263.598 177.281 263.845 123.992 264.092 70.6972H278.803C283.883 70.6972 288 77.5934 288 86.1055Z" fill="#FBB92F"/>
</svg>
