<?xml version="1.0" encoding="UTF-8"?>
<svg id="Layer_1" data-name="Layer 1" xmlns="http://www.w3.org/2000/svg" viewBox="0 0 100 100">
  <defs>
    <style>
      .cls-1 {
        fill: #f05133;
        stroke-width: 0px;
      }
    </style>
  </defs>
  <path class="cls-1" d="m98.11,45.54L54.45,1.89c-2.51-2.51-6.59-2.51-9.11,0l-9.07,9.07,11.5,11.5c2.67-.9,5.74-.3,7.87,1.83,2.14,2.14,2.74,5.23,1.82,7.92l11.08,11.08c2.68-.92,5.78-.33,7.92,1.82,2.99,2.99,2.99,7.84,0,10.84-2.99,2.99-7.84,2.99-10.84,0-2.25-2.25-2.81-5.56-1.67-8.33l-10.34-10.34v27.2c.73.36,1.42.84,2.03,1.45,2.99,2.99,2.99,7.84,0,10.84-2.99,2.99-7.85,2.99-10.84,0-2.99-3-2.99-7.85,0-10.84.74-.74,1.6-1.3,2.51-1.67v-27.46c-.91-.37-1.77-.93-2.51-1.67-2.27-2.27-2.81-5.59-1.65-8.38l-11.34-11.34L1.89,45.34c-2.52,2.52-2.52,6.59,0,9.11l43.66,43.66c2.51,2.51,6.59,2.51,9.11,0l43.46-43.45c2.51-2.52,2.51-6.6,0-9.11"/>
</svg>