<?xml version="1.0" encoding="UTF-8"?>
<svg id="Layer_1" data-name="Layer 1" xmlns="http://www.w3.org/2000/svg" viewBox="0 0 365 400">
  <defs>
    <style>
      .cls-1 {
        fill: #f16529;
      }

      .cls-1, .cls-2, .cls-3, .cls-4, .cls-5 {
        stroke-width: 0px;
      }

      .cls-3 {
        fill: #e44d26;
      }

      .cls-4 {
        fill: #fff;
      }

      .cls-5 {
        fill: #ebebeb;
      }
    </style>
  </defs>
  <path class="cls-2" d="m34,0h23.14v17.81h21.33V0h23.14v53.91h-23.14v-17.97h-21.13v17.97h-23.34m98.19-35.94h-20.42V0h64.09v17.97h-20.52v35.94h-23.14M186.02,0h24.25l14.89,18.98L240.05,0h24.25v53.91h-23.14v-26.72l-16.2,19.37-16.2-19.37v26.72h-22.74M275.76,0h23.14v36.09h32.8v17.81h-55.94"/>
  <path class="cls-3" d="m33.2,367.97L0,78.59h365l-33.2,289.22-149.6,32.19"/>
  <path class="cls-1" d="m182.5,375.39V102.34h149.2l-28.47,246.88"/>
  <path class="cls-5" d="m67.81,137.73h114.69v35.47h-64.59l4.23,36.33h60.36v35.39h-102.22m2.01,17.81h45.88l3.22,28.36,51.11,10.63v37.03l-93.77-20.31"/>
  <path class="cls-4" d="m296.79,137.73h-114.49v35.47h110.26m-4.12,36.33h-106.14v35.47h56.34l-5.33,46.09-51.01,10.63v36.88l93.56-20.16"/>
</svg>