<?xml version="1.0" encoding="UTF-8"?>
<svg id="Layer_1" data-name="Layer 1" xmlns="http://www.w3.org/2000/svg" viewBox="0 0 94.61 90.3">
  <defs>
    <style>
      .cls-1 {
        fill: #0868ac;
        stroke: #0d68a0;
        stroke-miterlimit: 10;
        stroke-width: .25px;
      }
    </style>
  </defs>
  <path class="cls-1" d="m87.45,72.77c-6.46,8.81-20.62,21.19-47.48,16.29-.63-.12-1.24-.34-1.86-.52-.15-.04-.29-.09-.43-.13-.6-.19-1.2-.38-1.8-.59-.07-.02-.13-.05-.2-.07-.54-.19-1.08-.39-1.61-.6-.14-.05-.28-.11-.42-.16-.58-.23-1.15-.46-1.71-.71-.1-.05-.21-.09-.31-.14-.49-.22-.98-.45-1.47-.68-.13-.06-.25-.12-.38-.18-.07-.03-.14-.07-.21-.1-.31-.16-.62-.32-.93-.48-.24-.12-.48-.24-.72-.37-.44-.24-.87-.48-1.29-.73-.16-.09-.32-.18-.48-.27-.58-.34-1.16-.7-1.72-1.05-.16-.1-.32-.21-.48-.32-.37-.24-.74-.48-1.1-.73-.04-.03-.07-.05-.11-.08-.14-.1-.27-.19-.41-.29-.38-.27-.76-.54-1.13-.81-.18-.14-.36-.27-.54-.41-.34-.26-.68-.52-1.01-.79-.17-.13-.34-.27-.5-.4-.41-.34-.81-.68-1.21-1.02-.08-.07-.16-.13-.25-.21-.45-.4-.89-.8-1.33-1.21-.13-.12-.26-.25-.4-.38-.33-.31-.65-.63-.97-.95-.13-.13-.26-.26-.39-.39-.41-.42-.82-.85-1.22-1.28-.01-.02-.03-.03-.05-.05,0,0-.02-.02-.02-.02-.41-.45-.81-.91-1.2-1.37-.11-.13-.22-.26-.33-.39-.29-.35-.58-.7-.86-1.06-.12-.15-.23-.3-.35-.45-.32-.41-.63-.82-.93-1.24-.06-.08-.12-.15-.17-.23-.01-.01-.02-.03-.03-.04-.35-.49-.69-.98-1.02-1.47-.1-.15-.2-.31-.3-.46-.24-.37-.48-.73-.71-1.1-.12-.19-.23-.38-.35-.57-.21-.35-.41-.69-.61-1.04-.11-.2-.22-.39-.33-.59-.06-.11-.13-.22-.19-.33-.1-.19-.2-.38-.3-.57-.16-.3-.31-.6-.47-.91C-2.35,46.03-2.43,26.99,11.61,14.63c-6.01,13.76-2.6,29.97,6.14,41.88.33.46.67.91,1.02,1.36.11.14.22.27.32.4.29.37.58.73.88,1.09.11.13.21.25.32.38.4.47.81.94,1.22,1.39.02.02.04.04.06.06.39.43.8.86,1.21,1.28.13.13.26.26.39.39.32.33.65.65.98.96.13.12.26.25.39.37.45.42.91.84,1.37,1.25.05.04.1.08.14.12.43.37.86.74,1.3,1.1.15.12.31.25.47.37.35.28.69.55,1.05.82.17.13.34.26.51.39.38.28.77.56,1.16.84.13.09.26.19.4.28.4.28.81.55,1.23.82.15.1.31.21.47.31.57.36,1.14.71,1.72,1.06.15.09.3.17.45.25.44.25.88.5,1.32.74.24.14.49.26.74.39.37.19.73.38,1.1.56.14.07.28.13.41.2.47.23.95.45,1.43.66.11.05.22.1.34.15.56.24,1.12.48,1.69.7.15.06.29.11.44.17.52.2,1.04.4,1.57.58.08.03.16.06.24.09.59.2,1.18.4,1.78.58.15.05.31.09.46.14.61.18,1.22.38,1.85.52,16.54,3.76,33.99.38,43.83-12.43,0,0-1.3,3.52-4.54,7.93Z"/>
  <path class="cls-1" d="m91.59,46.79c-4.25,6.73-14.33,16.84-35.63,13.31-.6-.1-1.18-.33-1.76-.51-.18-.06-.37-.12-.55-.18-.41-.14-.81-.27-1.21-.42-.19-.07-.38-.14-.57-.21-.44-.17-.89-.35-1.32-.54-.12-.05-.24-.1-.36-.15-.55-.24-1.08-.49-1.61-.75-.04-.02-.08-.03-.12-.05-.26-.13-.52-.27-.77-.4-.13-.07-.26-.13-.39-.21-.37-.2-.74-.41-1.11-.62-.06-.03-.12-.07-.18-.1-.42-.25-.84-.5-1.25-.77-.12-.08-.24-.16-.37-.24-.26-.17-.52-.33-.77-.51-.02-.01-.03-.02-.05-.04-.58-.4-1.14-.81-1.69-1.23-.12-.1-.24-.19-.37-.29-.55-.43-1.09-.88-1.63-1.35-.02-.01-.04-.03-.06-.05-.47-.42-.93-.85-1.38-1.28-.12-.12-.24-.23-.36-.35-.46-.46-.92-.93-1.35-1.4-1.2-1.04-2.2-2.58-3.1-3.87-.99-1.42-1.88-2.91-2.67-4.45-5.46-10.65-5.02-24.6,4.42-33.41-2.59,6.14-2.67,13.18-.69,19.55,2.21,7.17,6.85,13.49,12.71,18.12.12.1.25.2.38.3.55.42,1.11.83,1.68,1.23.27.18.54.36.81.53.13.08.25.17.38.25.41.26.83.52,1.25.76.08.05.17.09.25.14.34.2.68.39,1.03.58.16.08.31.16.47.24.27.14.54.28.81.42.53.26,1.07.52,1.62.75.12.05.24.1.36.15.44.19.88.36,1.33.53.18.07.37.14.56.21.41.15.82.29,1.23.42.18.06.35.12.53.17.58.18,1.17.35,1.76.51,13.39,3.47,25.93-.98,32.4-10.31,0,0-.72,2.39-2.67,5.49Z"/>
  <path class="cls-1" d="m89.63,27.44c-2.82,4-8.7,9.49-20.96,7.12-.38-.07-.74-.21-1.11-.32-.11-.03-.23-.07-.34-.11-.26-.09-.52-.17-.77-.27-6.22-2.28-11.55-7.09-14.15-13.22-2.89-6.76-1.92-14.5,3.53-20.05-3.95,8.66.65,18.91,7.87,24.38,1.32,1,2.75,1.87,4.24,2.59.79.38,1.6.71,2.42,1.01.64.23,1.37.47,2.04.63,8.42,2.04,15.28.63,19.36-5.25-.36.51-.99,1.88-2.13,3.48Z"/>
</svg>