<svg width="290" height="103" viewBox="0 0 290 103" fill="none" xmlns="http://www.w3.org/2000/svg">
<path d="M289.288 57.9889C288.448 60.8089 286.748 63.2689 284.448 65.0389C284.618 68.1389 284.058 71.2789 282.768 74.1789C280.388 79.5189 275.778 83.5389 270.158 85.1689C264.548 86.7989 258.508 85.8689 253.638 82.6389C252.538 81.8989 251.518 81.0689 250.588 80.1189C248.248 83.4389 244.688 85.8289 240.558 86.6489C236.598 87.4289 232.588 86.6989 229.228 84.7189C226.028 93.0589 218.908 99.4089 210.058 101.539C201.138 103.699 191.828 101.229 185.158 95.1589C177.788 98.1989 169.488 98.5589 161.768 96.0089C155.358 93.8989 149.808 89.9489 145.748 84.7589C142.798 86.9289 139.108 87.9689 135.358 87.5789C131.438 87.1689 127.908 85.2389 125.468 82.3189C123.788 86.1689 120.718 89.2989 116.808 91.0489C112.538 92.9689 107.688 93.0289 103.418 91.2689C99.7878 95.2389 94.8078 97.8289 89.3378 98.4289C83.3577 99.0889 77.4177 97.3289 72.8078 93.6189C66.2677 98.9989 57.0777 100.279 49.1777 96.5689C42.8877 93.6289 38.5178 88.0389 36.9578 81.6089C31.8078 84.1589 25.4378 83.6489 20.6878 79.7889C16.6378 76.4989 14.7278 71.5489 15.1678 66.7089C13.5778 65.5189 12.2878 63.9089 11.4878 61.9889C10.7778 60.2889 10.4978 58.4989 10.6278 56.7389C16.3278 68.3089 28.8778 74.6289 41.3678 72.5889C43.0877 76.9389 46.4777 80.4689 50.8377 82.3689C54.5177 83.9689 58.5778 84.2689 62.3878 83.2889C67.7678 88.4689 75.7077 90.1989 82.8577 87.5589C88.6677 85.3989 92.9877 80.6989 94.7677 75.0189C99.3377 77.9289 104.848 79.1489 110.308 78.3389C115.838 77.5189 120.818 74.7089 124.338 70.4989C127.448 74.5689 132.608 76.7089 137.828 75.8789C141.858 75.2389 145.308 72.9189 147.438 69.6589C154.318 77.5589 165.058 81.1489 175.438 78.7889C184.138 76.8089 191.248 70.9589 194.958 63.1789C197.948 66.4889 202.198 68.5489 206.828 68.6889C211.728 68.8389 216.338 66.8389 219.568 63.3689C223.728 68.1189 230.058 70.5489 236.468 69.6289C240.848 69.0089 244.758 66.8889 247.638 63.7889C249.918 66.1789 252.888 67.8389 256.188 68.5189C260.828 69.4689 265.638 68.3689 269.398 65.5089C273.168 62.6389 275.508 58.2889 275.828 53.5789C276.148 48.8589 274.418 44.2389 271.078 40.8889C273.798 39.8789 276.778 39.7489 279.618 40.5189C283.238 41.5189 286.298 43.9389 288.118 47.2189C289.948 50.5089 290.368 54.3889 289.288 57.9889Z" fill="#DCE8EF"/>
<path d="M275.828 53.579C275.508 58.289 273.168 62.639 269.398 65.5089C265.638 68.3689 260.828 69.4689 256.188 68.5189C252.888 67.8389 249.918 66.179 247.638 63.789C244.758 66.889 240.848 69.0089 236.468 69.6289C230.058 70.5489 223.728 68.1189 219.568 63.3689C216.338 66.839 211.728 68.839 206.828 68.6889C202.198 68.549 197.948 66.489 194.958 63.179C191.248 70.959 184.138 76.8089 175.438 78.7889C165.058 81.1489 154.318 77.559 147.438 69.659C145.308 72.919 141.858 75.2389 137.828 75.8789C132.608 76.7089 127.448 74.5689 124.338 70.4989C120.818 74.7089 115.838 77.5189 110.308 78.3389C104.848 79.1489 99.3378 77.9289 94.7678 75.0189C92.9878 80.6989 88.6678 85.3989 82.8578 87.5589C75.7078 90.1989 67.7679 88.4689 62.3879 83.2889C58.5779 84.269 54.5178 83.9689 50.8378 82.3689C46.4778 80.4689 43.0878 76.9389 41.3678 72.5889C28.8778 74.6289 16.3279 68.309 10.6279 56.739C7.70786 56.659 4.91785 55.359 2.97785 53.069C0.477847 50.129 -0.192149 46.039 1.24785 42.449C2.68785 38.859 5.98785 36.3689 9.82785 35.959C11.9279 35.7389 13.9879 36.159 15.7779 37.109C17.5879 34.349 20.5179 32.4389 23.8779 31.939C27.9779 31.329 32.0778 32.9289 34.6778 36.0989C38.4178 31.049 44.1779 27.719 50.5979 27.099C56.0079 26.579 61.3178 28.0389 65.6378 31.049C67.3679 27.819 70.4679 25.409 74.2379 24.649C77.6479 23.969 81.0778 24.739 83.8078 26.609C85.2578 23.989 87.4978 21.829 90.2778 20.479C92.7978 19.249 95.5678 18.7889 98.2678 19.069C103.088 6.99895 115.258 -0.881049 128.638 0.0789509C141.198 0.978951 151.578 9.45895 155.308 20.939C159.348 18.249 164.388 17.259 169.288 18.359C173.928 19.409 177.878 22.219 180.408 26.069C182.558 23.5389 185.348 21.569 188.538 20.379C191.898 19.1189 195.488 18.809 198.938 19.409C203.458 10.359 213.238 4.60895 223.868 5.68895C234.218 6.73895 242.478 13.959 245.308 23.369C251.308 22.279 257.598 23.6989 262.618 27.469C267.058 30.809 270.018 35.6189 271.078 40.889C274.418 44.2389 276.148 48.859 275.828 53.579Z" fill="#F9FBFC"/>
<path d="M89.5578 69.729C90.7778 70.989 91.9278 71.7589 93.0878 72.2589C94.2378 72.7489 95.3578 72.9489 96.4878 72.9389C97.6078 72.9189 98.7278 72.6989 99.8678 72.1789C101.008 71.6589 102.148 70.8689 103.348 69.5789C103.778 71.3089 103.118 73.259 101.808 74.659C100.498 76.069 98.5278 76.9289 96.5378 76.9389C94.5478 76.9689 92.5578 76.1489 91.2178 74.7689C89.8778 73.3989 89.1778 71.469 89.5678 69.729H89.5578Z" fill="#DCE8EF"/>
<path d="M241.248 60.309C242.468 61.569 243.618 62.339 244.778 62.839C245.928 63.329 247.048 63.529 248.178 63.519C249.298 63.499 250.418 63.2789 251.558 62.7589C252.698 62.2389 253.838 61.449 255.038 60.159C255.468 61.889 254.808 63.8389 253.498 65.2389C252.188 66.6489 250.218 67.5089 248.228 67.5189C246.238 67.5489 244.248 66.7289 242.908 65.3489C241.568 63.9789 240.868 62.049 241.258 60.309H241.248Z" fill="#DCE8EF"/>
<path d="M174.528 49.409C176.968 53.469 180.028 56.569 183.568 58.659C187.088 60.749 191.018 61.779 194.948 61.729C198.878 61.679 202.778 60.559 206.248 58.399C209.738 56.239 212.728 53.069 215.078 48.959C215.168 53.729 212.888 58.629 209.158 62.109C205.438 65.619 200.248 67.689 195.008 67.729C189.778 67.799 184.538 65.839 180.748 62.419C176.938 59.019 174.558 54.179 174.528 49.409Z" fill="#DCE8EF"/>
<path d="M136.428 60.429C138.368 62.709 140.338 64.209 142.388 65.189C144.438 66.169 146.518 66.589 148.598 66.569C150.678 66.529 152.748 66.059 154.768 65.039C156.798 64.019 158.728 62.479 160.628 60.159C161.178 63.139 159.958 66.419 157.678 68.759C155.408 71.119 152.048 72.559 148.658 72.569C145.268 72.619 141.888 71.2589 139.558 68.9489C137.228 66.6589 135.938 63.419 136.418 60.429H136.428Z" fill="#DCE8EF"/>
<path d="M54.6978 70.3389C53.4678 72.4389 51.3778 74.0089 49.0178 74.8889C46.6478 75.7689 43.9778 75.9489 41.4578 75.3989C38.9378 74.8589 36.5778 73.589 34.7878 71.799C33.0078 70.019 31.7578 67.719 31.5078 65.299C33.2478 66.969 34.9278 68.3089 36.7278 69.3289C38.5078 70.3589 40.3778 71.0689 42.3078 71.4989C44.2378 71.9189 46.2278 72.0389 48.2778 71.8489C50.3378 71.6589 52.4178 71.1489 54.6978 70.3389Z" fill="#DCE8EF"/>
</svg>
