<svg width="234" height="110" viewBox="0 0 234 110" fill="none" xmlns="http://www.w3.org/2000/svg">
<path d="M231.118 61.5089C229.528 63.2389 227.378 64.2589 225.128 64.4389C224.188 67.4889 222.198 70.1889 219.418 71.9889C215.938 74.2489 211.698 74.8089 207.838 73.6389C204.928 76.8789 200.878 79.0189 196.378 79.5089C191.278 80.0489 186.308 78.3889 182.598 75.1189C181.428 76.8189 179.948 78.3089 178.208 79.5189C176.288 80.8489 174.138 81.7489 171.918 82.2189C171.548 87.0689 169.598 91.7889 166.178 95.5689C160.628 101.709 152.208 104.219 144.328 102.339C141.948 105.929 138.128 108.429 133.728 109.099C128.228 109.939 122.748 107.789 119.298 103.549C114.428 107.479 108.038 109.139 101.778 107.949C94.3678 106.549 88.2478 101.409 85.5878 94.3889C79.0178 98.4489 71.3678 100.609 63.4978 100.499C52.6078 100.339 42.2478 95.8389 34.6978 88.0289C31.7978 89.9289 28.3178 90.9089 24.7378 90.6989C20.5378 90.4589 16.6778 88.6189 13.8578 85.6889C11.2978 86.1589 8.61781 85.7589 6.24781 84.4589C2.31781 82.2989 -0.0221875 78.0589 0.267812 73.5789C0.317812 72.7589 0.457806 71.9689 0.667806 71.1989C1.46781 74.1289 3.40781 76.6889 6.12781 78.2389C9.40781 80.0989 13.3278 80.2589 16.6878 78.7389C19.1078 81.9389 22.9478 83.7889 26.9978 83.6489C30.4978 83.5189 33.7378 81.9289 35.9678 79.3389C39.9678 84.5389 46.6778 86.9989 53.1578 85.5189C58.5178 84.2989 62.8578 80.5889 64.9678 75.7089C67.1078 79.2089 70.8978 81.4989 75.1478 81.6389C78.8678 81.7689 82.3478 80.2389 84.7578 77.6189C89.4378 82.6889 97.0678 84.2389 103.508 81.0189C108.918 78.3189 112.148 72.9289 112.288 67.2289C118.168 75.4889 128.378 79.8489 138.658 78.0389C149.108 76.1989 157.308 68.3989 159.868 58.3989C162.548 61.8989 166.888 63.8489 171.408 63.4089C175.828 62.9789 179.638 60.3389 181.638 56.5389C183.578 59.4289 186.688 61.3689 190.218 61.8089C193.078 62.1689 195.928 61.5089 198.298 59.9989C200.268 61.9589 203.068 62.9189 205.888 62.5089C208.058 62.1989 209.998 61.1089 211.378 59.4989C213.558 60.9489 216.268 61.4289 218.838 60.7589C220.778 60.2489 222.478 59.1289 223.698 57.6089C224.888 57.8789 226.148 57.7989 227.318 57.3789C229.058 56.7389 230.448 55.3889 231.118 53.6589C231.688 52.2089 231.698 50.6189 231.188 49.1689C231.758 49.7989 232.248 50.5189 232.628 51.3189C234.258 54.6989 233.658 58.7389 231.118 61.5089Z" fill="#DCE8EF"/>
<path d="M231.118 53.6589C230.448 55.3889 229.058 56.7389 227.318 57.3789C226.148 57.7989 224.888 57.8789 223.698 57.6089C222.478 59.1289 220.778 60.2489 218.838 60.7589C216.268 61.4289 213.558 60.9489 211.378 59.4989C209.998 61.1089 208.058 62.1989 205.888 62.5089C203.068 62.9189 200.268 61.9589 198.298 59.9989C195.928 61.5089 193.078 62.1689 190.218 61.8089C186.688 61.3689 183.578 59.4289 181.638 56.5389C179.638 60.3389 175.828 62.9789 171.408 63.4089C166.888 63.8489 162.548 61.8989 159.868 58.3989C157.308 68.3989 149.108 76.1989 138.658 78.0389C128.378 79.8489 118.168 75.4889 112.288 67.2289C112.148 72.9289 108.918 78.3189 103.508 81.0189C97.0677 84.2389 89.4377 82.6889 84.7577 77.6189C82.3477 80.2389 78.8677 81.7689 75.1477 81.6389C70.8977 81.4989 67.1077 79.2089 64.9677 75.7089C62.8577 80.5889 58.5177 84.2989 53.1577 85.5189C46.6777 86.9989 39.9677 84.5389 35.9677 79.3389C33.7377 81.9289 30.4977 83.5189 26.9977 83.6489C22.9477 83.7889 19.1077 81.9389 16.6877 78.7389C13.3277 80.2589 9.40773 80.0989 6.12773 78.2389C3.40773 76.6889 1.46772 74.1289 0.667725 71.1989C1.62772 67.7489 4.16772 64.8889 7.58772 63.5489C11.2977 62.0889 15.4577 62.6489 18.6177 64.9589C19.7077 61.2989 22.5277 58.2689 26.3377 56.9989C27.9577 56.4589 29.6177 56.2889 31.2277 56.4489C31.5677 49.7089 35.4677 43.4489 41.7677 40.2589C46.8577 37.6889 52.6377 37.5789 57.6477 39.5889C58.3477 36.5989 60.0777 33.8989 62.6277 32.0189C64.4777 30.6489 66.6177 29.8189 68.8177 29.5489C70.1877 15.0689 81.2077 2.98889 95.9977 0.638894C108.858 -1.39111 121.278 4.45889 128.088 14.8089C133.868 11.1789 141.188 10.5389 147.638 13.3789C152.678 15.5989 156.508 19.6489 158.528 24.5189C164.718 22.5189 171.478 22.6989 177.658 25.1589C184.328 27.8289 189.678 32.9089 192.698 39.2789C195.848 38.4589 199.248 38.6889 202.358 40.0389C206.198 41.7189 209.088 44.8989 210.428 48.7189C212.878 48.0589 215.458 48.0789 217.898 48.7789C219.428 47.2589 221.478 46.2989 223.718 46.1389C226.588 45.9389 229.318 47.0889 231.178 49.1589H231.188C231.698 50.6189 231.688 52.2089 231.118 53.6589Z" fill="#F9FBFC"/>
<path d="M58.9178 72.0089C59.9378 73.3289 61.0378 74.2489 62.2178 74.8489C63.3978 75.4489 64.6278 75.7289 65.8578 75.7189C67.0878 75.6989 68.3078 75.3989 69.4678 74.7689C70.6378 74.1389 71.7078 73.1989 72.7078 71.8589C72.9378 73.5289 72.2178 75.3389 70.9278 76.6289C69.6378 77.9289 67.7778 78.7089 65.8878 78.7189C64.0078 78.7489 62.1178 78.0089 60.8078 76.7389C59.4878 75.4789 58.7378 73.6889 58.9178 72.0189V72.0089Z" fill="#DCE8EF"/>
<path d="M153.168 54.4889C154.188 55.8089 155.288 56.7289 156.468 57.3289C157.648 57.9289 158.878 58.2089 160.108 58.1989C161.338 58.1789 162.558 57.8789 163.718 57.2489C164.888 56.6189 165.958 55.6789 166.958 54.3389C167.188 56.0089 166.468 57.8189 165.178 59.1089C163.888 60.4089 162.028 61.1889 160.138 61.1989C158.258 61.2289 156.368 60.4889 155.058 59.2189C153.738 57.9589 152.988 56.1689 153.168 54.4989V54.4889Z" fill="#DCE8EF"/>
<path d="M191.318 55.9089C192.338 57.2289 193.438 58.1489 194.618 58.7489C195.798 59.3489 197.028 59.6289 198.258 59.6189C199.488 59.5989 200.708 59.2989 201.868 58.6689C203.038 58.0389 204.108 57.0989 205.108 55.7589C205.338 57.4289 204.618 59.2389 203.328 60.5289C202.038 61.8289 200.178 62.6089 198.288 62.6189C196.408 62.6489 194.518 61.9089 193.208 60.6389C191.888 59.3789 191.138 57.5889 191.318 55.9189V55.9089Z" fill="#DCE8EF"/>
<path d="M96.9279 58.0589C99.0579 61.0089 101.438 63.1189 104.048 64.5189C106.658 65.9189 109.438 66.5689 112.218 66.5389C114.998 66.4989 117.758 65.7789 120.328 64.3289C122.908 62.8789 125.238 60.7189 127.318 57.7189C127.688 61.3789 126.078 65.2689 123.248 68.0389C120.428 70.8389 116.378 72.5089 112.288 72.5389C108.198 72.5989 104.118 71.0089 101.238 68.2789C98.3479 65.5689 96.6479 61.7189 96.9279 58.0589Z" fill="#DCE8EF"/>
</svg>
