<svg width="95" height="77" viewBox="0 0 95 77" fill="none" xmlns="http://www.w3.org/2000/svg">
<path d="M37.0667 38.104C14.4222 22.3576 3.64839 35.118 0.596353 44.7205C0.376484 45.4123 0.990401 46.0597 1.71337 45.995C12.4953 45.031 20.9094 55.0864 23.8699 60.4779C31.8098 76.8094 49.0875 76.176 56.7339 73.8179C73.5265 67.7588 84.4429 71.5467 89.4994 76.0102C89.9821 76.4362 90.7455 76.3673 91.066 75.809C96.5145 66.3185 94.4687 53.0376 92.3637 46.2226C92.1519 45.5368 91.2998 45.3314 90.7568 45.8008C80.8671 54.3507 73.0162 52.7547 69.5758 50.4151C69.1207 50.1056 69.0942 49.4703 69.4451 49.0463C81.6222 34.332 74.446 12.3006 68.4707 1.43567C68.0708 0.708449 67.0194 0.800933 66.6976 1.56595C59.1741 19.4515 45.0696 33.0155 38.2381 38.105C37.8953 38.3603 37.4176 38.348 37.0667 38.104Z" fill="#D9E0CE"/>
<path d="M48.4378 15.3995L45.2228 5.69713C44.9818 4.9698 44.0452 4.77719 43.5478 5.36006C35.7732 14.4713 33.7702 22.5019 33.7196 26.0348C33.7141 26.418 33.9582 26.7513 34.3129 26.8965L37.3283 28.1312C37.7284 28.2951 38.1885 28.1832 38.4687 27.854L48.2501 16.3622C48.4765 16.0962 48.5477 15.7312 48.4378 15.3995Z" fill="#D9E0CE"/>
</svg>
