<?xml version="1.0" encoding="UTF-8"?>
<svg id="Layer_1" data-name="Layer 1" xmlns="http://www.w3.org/2000/svg" viewBox="0 0 27.48 25.96">
  <defs>
    <style>
      .cls-1 {
        fill: #0c4264;
      }

      .cls-1, .cls-2, .cls-3, .cls-4 {
        stroke-width: 0px;
      }

      .cls-5 {
        opacity: .98;
      }

      .cls-2 {
        fill: #a5bac6;
      }

      .cls-3 {
        fill: #30566b;
      }

      .cls-4 {
        fill: #186697;
      }

      .cls-6 {
        opacity: .25;
      }
    </style>
  </defs>
  <g class="cls-6">
    <path class="cls-2" d="m8.75,9.32c-.21.23-.42.33-.64.31-.22-.02-.41-.11-.55-.26-.15-.15-.24-.34-.28-.57s.03-.44.2-.64c.39-.47.81-.79,1.25-.98.44-.18.94-.27,1.51-.27.62,0,1.14.11,1.59.34.44.23.83.5,1.17.82.37-.51.79-.87,1.25-1.06.46-.2.94-.29,1.44-.29.29,0,.56.05.83.16s.5.27.7.47.36.46.48.76c.12.3.17.63.16,1.01,0,.36-.08.69-.22,1.01-.14.32-.32.6-.55.84-.23.24-.49.43-.78.57s-.6.21-.92.21c-.3.02-.58-.04-.84-.16s-.49-.27-.7-.42l-1.33,3.89c.16.16.31.31.46.46.15.15.31.29.47.4.16.12.33.21.51.28.18.07.39.1.61.1s.46-.03.68-.09c.22-.06.43-.16.62-.31.2-.15.38-.34.55-.58.17-.24.33-.55.48-.92.09-.26.24-.43.45-.51.2-.08.4-.1.59-.05.19.05.34.15.46.31s.14.35.07.57c-.39,1.17-.95,2.04-1.68,2.6-.73.56-1.54.85-2.42.85-.62,0-1.14-.11-1.58-.34-.44-.23-.83-.5-1.16-.82-.37.51-.82.89-1.35,1.14s-1.08.37-1.68.37c-.39,0-.76-.06-1.12-.17s-.67-.27-.94-.48c-.27-.21-.48-.46-.64-.76-.16-.3-.23-.63-.23-1.01,0-.09,0-.2.01-.3,0-.1.03-.21.05-.33.09-.39.24-.72.46-1s.48-.5.77-.68.61-.31.94-.38c.33-.08.67-.11,1-.1.36.02.7.08,1.01.19s.59.24.84.4l1.43-4.07c-.31-.31-.64-.58-.97-.79-.34-.22-.73-.32-1.17-.32-.23,0-.46.06-.68.17-.22.11-.42.27-.62.47Zm-.2,7.53c.3,0,.6-.11.89-.32.29-.22.54-.56.75-1.03-.19-.17-.39-.31-.58-.42-.2-.1-.42-.16-.65-.16-.3,0-.56.08-.77.25-.21.17-.35.37-.42.61-.02.04-.03.09-.03.14v.14c0,.22.07.4.21.56s.34.23.6.23Zm6.94-8.23c-.17,0-.34.06-.49.18-.16.12-.29.31-.42.57.07.1.16.19.28.29s.26.16.44.17c.11,0,.22,0,.31-.03.1-.03.18-.08.25-.14.07-.07.13-.15.16-.25s.04-.21.02-.34c-.05-.3-.23-.46-.55-.46Z"/>
  </g>
  <g class="cls-5">
    <path class="cls-1" d="m9.38,8.47c-.21.23-.42.33-.64.31-.22-.02-.41-.11-.55-.26-.15-.15-.24-.34-.28-.57s.03-.44.2-.64c.39-.47.81-.79,1.25-.98.44-.18.94-.27,1.51-.27.62,0,1.14.11,1.59.34s.83.5,1.17.82c.37-.51.79-.87,1.25-1.06.46-.2.94-.29,1.44-.29.29,0,.56.05.83.16.26.11.5.27.7.47.2.21.36.46.48.76.12.3.17.63.16,1.01,0,.36-.08.69-.22,1.01-.14.32-.32.6-.55.84-.23.24-.49.43-.78.57-.29.14-.6.21-.92.21-.3.02-.58-.04-.84-.16-.26-.13-.49-.27-.7-.42l-1.33,3.89c.16.16.31.31.46.46.15.15.31.29.47.4.16.12.33.21.51.28s.39.1.61.1.46-.03.68-.09.43-.16.62-.31.38-.34.55-.58c.17-.24.33-.55.48-.92.1-.26.24-.43.45-.51.2-.08.4-.1.59-.05.19.05.34.15.46.31.12.16.14.35.07.57-.39,1.17-.95,2.04-1.68,2.6-.73.56-1.54.85-2.42.85-.62,0-1.14-.11-1.58-.34-.44-.23-.83-.5-1.16-.82-.37.51-.82.89-1.35,1.14-.52.25-1.09.37-1.68.37-.39,0-.76-.06-1.12-.17s-.67-.27-.94-.48c-.27-.21-.48-.46-.64-.76-.16-.3-.23-.63-.23-1.01,0-.09,0-.2.01-.3,0-.1.03-.21.05-.33.09-.39.24-.72.46-1,.22-.28.48-.5.77-.68.29-.18.61-.31.94-.38.33-.08.67-.11.99-.1.36.02.7.08,1.01.19s.59.24.84.4l1.43-4.07c-.31-.31-.64-.58-.98-.79-.34-.22-.73-.32-1.17-.32-.23,0-.46.06-.68.17-.22.11-.42.27-.62.47Zm-.2,7.53c.3,0,.6-.11.89-.32s.54-.56.75-1.03c-.19-.17-.39-.31-.58-.42-.2-.1-.42-.16-.65-.16-.3,0-.56.08-.77.25-.21.17-.35.37-.42.61-.02.04-.03.09-.03.14v.14c0,.22.07.4.21.56.14.16.34.23.6.23Zm6.94-8.23c-.17,0-.34.06-.49.18-.16.12-.29.31-.42.57.07.1.16.19.28.29.12.1.26.16.44.17.11,0,.22,0,.31-.03s.18-.08.25-.14c.07-.07.13-.15.16-.25s.04-.21.02-.34c-.05-.3-.23-.46-.55-.46Z"/>
  </g>
  <g>
    <path class="cls-4" d="m2.21,5.76s.06-.04.15,0c.17.07.31.22.41.46s.1.46,0,.7c-.07.17-.21.33-.43.49.1.22.1.45,0,.68-.06.15-.15.25-.25.29-.11.04-.22.03-.35-.02-.13-.05-.2-.14-.22-.26s0-.25.05-.39c.03-.08.06-.15.1-.21-.3-.12-.58-.28-.84-.46-.08.06-.15.11-.23.15-.08.04-.13.05-.16.04-.08-.03-.11-.07-.1-.1.02-.05.06-.09.11-.14.05-.04.1-.09.14-.14C.22,6.5.02,6.18,0,5.86c0-.11.01-.22.06-.32.16-.39.41-.52.73-.38.19.08.32.21.4.41.11.27.08.61-.07,1.01.2.11.44.23.72.35.07.03.14.07.22.12.08-.07.16-.13.23-.2.07-.07.13-.16.18-.28.03-.06.02-.13,0-.21-.03-.08-.06-.16-.1-.24-.04-.08-.08-.15-.11-.21-.03-.06-.05-.11-.03-.14Zm-1.8-.07c-.09.21.05.44.4.7.06-.18.07-.35.04-.51-.03-.16-.09-.25-.18-.29-.12-.05-.21-.02-.26.1Zm1.5,2.32c.07.03.12,0,.16-.1.04-.09,0-.17-.09-.25-.06.05-.1.1-.12.15-.04.1-.02.16.05.2Z"/>
    <path class="cls-4" d="m2.82,3.56c.14-.18.26-.24.35-.16.11.08.08.23-.09.44-.04.05-.08.09-.15.13,0,.09,0,.18.05.26s.11.17.23.26c.12.09.24.12.37.07.13-.05.25-.13.35-.26.1-.13.16-.25.18-.36s.03-.21.03-.31,0-.18-.02-.25c-.01-.07-.01-.11,0-.13.01-.02.03-.02.06-.01s.06.02.1.05c.17.13.24.34.22.63-.02.29-.13.56-.34.81-.32.4-.64.57-.97.5-.11-.02-.23-.08-.34-.17-.3-.24-.39-.55-.27-.95-.23.07-.45.02-.66-.16-.1-.08-.17-.18-.22-.31-.1,0-.19,0-.29-.02-.09-.02-.15-.04-.19-.07-.06-.05-.07-.09-.04-.13.02-.03.07-.05.15-.05.08,0,.14-.01.19-.02.05,0,.09-.02.13-.03.03-.26.14-.52.34-.75.19-.24.38-.35.58-.32.07,0,.15.04.22.1.11.09.17.21.16.37,0,.16-.06.31-.19.47s-.29.26-.5.32c0,0,.01.02.02.02l.07.05s.09.05.16.07.14.02.2.01c.02-.04.04-.07.07-.11Zm-.23-.82c-.08-.06-.18-.03-.28.1-.11.13-.15.27-.13.42.16-.06.28-.15.38-.26.09-.12.11-.2.04-.26Z"/>
    <path class="cls-4" d="m5.19,1.35c.19-.14.31-.16.38-.07.08.11.02.24-.2.4-.05.04-.1.06-.17.09-.03.09-.04.18-.02.27.02.09.07.19.16.31.09.12.2.17.34.16s.27-.07.4-.17.22-.2.27-.3c.05-.1.08-.2.11-.29.02-.09.04-.18.04-.25,0-.07.02-.11.04-.12s.04-.01.07,0c.03.01.05.04.08.08.13.17.15.39.05.66-.09.27-.27.5-.53.7-.41.31-.76.39-1.06.24-.1-.05-.2-.14-.29-.25-.23-.3-.24-.63-.02-.98-.24,0-.44-.1-.6-.32-.08-.1-.12-.22-.13-.36-.1-.02-.19-.05-.27-.09-.08-.04-.14-.08-.16-.11-.04-.06-.05-.11,0-.14.03-.02.08-.03.16-.01.08.01.14.02.19.03.05,0,.09,0,.14,0,.1-.25.27-.46.52-.65s.46-.24.64-.16c.07.03.13.08.19.16.08.11.11.24.07.39-.04.15-.14.29-.3.41-.16.12-.35.18-.56.18,0,.01,0,.02.02.03l.05.07s.08.08.14.11c.06.03.13.05.19.06.03-.03.06-.06.1-.09Zm-.01-.85c-.06-.08-.16-.07-.3.03s-.22.23-.24.37c.17-.02.31-.07.43-.16s.15-.17.1-.24Z"/>
  </g>
  <g>
    <path class="cls-3" d="m7.8,23.92s.16.07.36.19c.16-.41.42-.83.78-1.27.13-.16.25-.22.36-.19.02,0,.03.03.04.08s0,.11-.01.17c-.02.08-.12.28-.29.61-.17.33-.31.62-.4.87.16.08.31.14.44.18.13.03.26.03.38,0,.13-.04.24-.1.35-.19.22-.19.37-.44.46-.76.15-.6,0-.96-.48-1.08-.17-.04-.48-.04-.95-.01-.09,0-.17,0-.23-.01-.06-.02-.09-.04-.08-.08.01-.05.06-.1.15-.15s.2-.09.33-.12c.32-.08.61-.08.87,0,.36.1.63.27.81.53.21.3.26.68.13,1.15-.05.2-.13.39-.25.56-.11.18-.25.33-.42.44s-.36.2-.58.24c-.22.04-.46.03-.72-.04-.11-.03-.23-.09-.38-.18-.03.04-.08.06-.15.04-.13-.04-.22-.08-.25-.14-.04-.06-.04-.14-.02-.25-.11-.1-.19-.2-.25-.3-.06-.1-.08-.17-.07-.23,0-.03.03-.04.07-.03Z"/>
    <path class="cls-3" d="m14.95,24.39s.07.06.08.18c0,.07-.02.15-.07.25s-.12.19-.2.27-.18.15-.29.21c-.11.06-.21.09-.31.09-.16,0-.27-.02-.33-.1-.06-.07-.1-.19-.11-.34,0-.15.04-.42.13-.8-.37,0-.64.01-.8.02h-.06c-.03.3-.04.61-.02.94,0,.14-.04.25-.15.31-.05.03-.1.05-.14.08-.05.02-.09.04-.15.04-.13,0-.21-.11-.22-.35-.01-.24.02-.55.11-.93-.12.02-.22.04-.31.06s-.16.03-.21.03c-.05,0-.08,0-.08-.04,0-.08.06-.17.18-.25.13-.09.3-.16.53-.22.21-.65.49-1.09.84-1.33.13-.09.27-.14.42-.14.27-.01.46.05.59.18s.2.32.21.55c.02.23-.04.54-.16.92-.04.15-.09.28-.12.4-.04.12-.06.22-.05.29,0,.07.01.13.03.16.01.04.04.05.08.05.07,0,.23-.15.48-.45.04-.06.08-.08.1-.09Zm-.92-1.14c-.01-.23-.11-.34-.28-.33-.18.01-.32.09-.44.25-.12.16-.2.36-.26.61l.91-.04c.05-.22.08-.38.07-.49Z"/>
    <path class="cls-3" d="m16.73,22.23c-.13-.03-.24-.02-.33.02-.16.06-.32.15-.49.26l-.19.12c-.05.04-.1.06-.13.07-.08.03-.12.01-.14-.04-.01-.03,0-.08.04-.15.04-.07.09-.14.16-.22.18-.19.4-.34.66-.43.37-.14.64-.16.79-.07.04.02.08.07.1.13.08.25.21.93.37,2.06.25-.23.4-.39.43-.5.04-.1.08-.16.11-.17.04-.01.07.02.1.1.03.08.03.15,0,.23-.02.08-.07.17-.15.28-.07.11-.22.27-.44.48.02.11.02.23,0,.38,0,.59-.21.96-.64,1.11-.21.08-.4.1-.58.06s-.3-.15-.37-.34c-.02-.07-.01-.14.03-.23.05-.09.12-.19.23-.3.11-.11.33-.31.66-.58-.02-.09-.03-.18-.05-.26s-.03-.15-.04-.21c-.08-.38-.13-.84-.15-1.38,0-.15,0-.29,0-.41Zm-.1,3.39c.09.01.17,0,.24-.02.07-.02.11-.06.14-.1.02-.04.04-.11.06-.19.02-.08.01-.22-.01-.41-.11.09-.21.17-.29.23-.08.06-.14.12-.19.16-.05.05-.08.08-.1.12s-.02.06,0,.1c.02.06.08.1.17.11Z"/>
    <path class="cls-3" d="m19.55,21.42c.19-.13.32-.15.39-.05.08.11,0,.24-.21.39-.05.03-.11.06-.18.08-.03.09-.05.18-.03.27.01.09.06.2.14.32.09.12.2.18.34.17.14,0,.27-.06.41-.15.13-.09.23-.19.28-.29.05-.1.09-.2.12-.29s.04-.17.05-.24.02-.11.04-.12c.02-.01.04,0,.07,0s.05.04.08.08c.12.18.13.4.02.66-.1.27-.29.49-.56.68-.42.29-.78.35-1.07.2-.1-.06-.2-.14-.28-.26-.22-.32-.21-.64.02-.98-.24,0-.43-.12-.59-.34-.07-.11-.11-.23-.12-.36-.1-.02-.19-.06-.27-.1-.08-.04-.13-.08-.16-.12-.04-.06-.04-.11,0-.14.03-.02.08-.02.16,0s.14.03.19.04c.05,0,.09.01.14,0,.11-.24.29-.45.54-.62.25-.17.47-.22.65-.13.07.03.13.09.18.16.08.12.1.25.05.4s-.15.28-.32.39c-.17.11-.36.17-.57.16,0,.01,0,.02.01.03l.05.07s.07.08.13.11c.06.04.12.06.19.07.03-.03.06-.06.1-.08Zm.02-.85c-.06-.08-.16-.08-.3.02-.14.1-.22.22-.25.36.17,0,.31-.06.44-.14s.16-.16.11-.24Z"/>
    <path class="cls-3" d="m22.11,17.61s.01.06-.04.12c-.02.02-.04.05-.08.08s-.1.1-.19.19c-.09.09-.18.2-.27.32s-.14.25-.15.39c-.01.14,0,.28.05.42.05.14.12.27.21.4.09.13.2.24.31.33.21.16.41.24.61.24.19,0,.36-.1.49-.27.24-.31.32-.64.22-.98-.03-.1-.07-.2-.13-.3-.14.14-.29.21-.45.22-.16,0-.31-.04-.45-.15-.14-.11-.22-.23-.24-.38-.02-.14.02-.28.12-.41.1-.13.23-.2.38-.19s.31.07.46.19c.05.04.1.08.14.12.01-.05.02-.1.02-.14,0-.04.01-.07.03-.1.03-.04.07-.05.1-.02.07.06.12.13.13.22s0,.19-.03.29c.26.3.4.62.42.97.02.34-.1.68-.35,1.01s-.55.51-.89.54c-.3.03-.59-.07-.86-.28-.19-.14-.34-.31-.47-.51-.13-.19-.21-.4-.26-.61-.05-.21-.05-.43,0-.65.04-.22.14-.43.29-.63s.32-.34.49-.42c.17-.08.3-.09.38-.03Zm.32.41s-.02.09.06.15c.13.1.26.12.39.06-.05-.05-.11-.1-.17-.15-.14-.11-.23-.13-.28-.06Z"/>
    <path class="cls-3" d="m25.35,14.87c.13.04.21.04.23-.02.02-.06-.02-.2-.13-.41-.03-.05-.06-.11-.1-.18-.04-.06-.06-.11-.05-.13.02-.05.07-.06.16-.03s.17.08.24.17.13.18.18.29c.05.11.08.22.09.34s0,.23-.03.33c-.05.15-.12.24-.21.27-.09.03-.19.03-.29,0-.1-.03-.19-.07-.28-.12-.14-.08-.41-.27-.79-.56-.18-.14-.33-.22-.43-.26-.1-.03-.19-.04-.27-.02s-.12.07-.15.15c-.03.08-.02.17,0,.26.03.09.08.19.14.28.12.17.28.34.5.52.22.18.41.31.59.4.25.03.41.05.48.08.15.05.23.13.24.25,0,.06.01.11.02.16,0,.05,0,.1-.02.15-.04.13-.18.15-.43.07s-.69-.3-1.35-.67c-.24-.13-.37-.2-.4-.21-.21-.07-.32-.05-.36.05-.01.04-.01.07,0,.11.01.04.02.07.04.11.01.04.02.07.03.11.01.04,0,.08,0,.11-.01.04-.05.05-.12.03-.14-.05-.23-.15-.28-.31-.05-.15-.05-.32.01-.5.08-.25.25-.35.5-.3.07.01.15.04.24.07h.03c-.15-.15-.27-.31-.34-.49-.07-.17-.08-.35-.02-.53.08-.25.21-.41.38-.47.36-.14.82.02,1.38.49.11.09.22.18.32.26s.18.13.26.16Z"/>
    <path class="cls-3" d="m24.49,11.97c.26.11.5.17.73.17.23,0,.39-.04.5-.13.11-.09.16-.24.17-.44,0-.12-.04-.23-.13-.33-.22-.03-.36-.06-.44-.08-.18-.05-.26-.12-.26-.21,0-.07.05-.14.16-.21.1-.06.19-.09.26-.09.12,0,.34.05.67.16-.14-.19-.34-.41-.62-.65-.04-.04-.06-.06-.06-.09,0-.04.04-.05.13-.05.17,0,.35.09.54.26s.34.4.45.69c.05.02.1.04.14.05.04.01.1.03.16.05.06.02.13.06.21.12s.14.12.19.2c.11.17.17.37.17.59,0,.22-.06.4-.16.55-.1.15-.23.22-.41.22-.08,0-.15-.04-.2-.12-.05-.08-.1-.19-.13-.31s-.07-.27-.1-.43c-.03-.16-.06-.32-.09-.48-.06-.02-.12-.04-.17-.05.08.11.12.23.11.39,0,.32-.07.57-.21.75-.16.21-.39.31-.72.3-.42,0-.82-.12-1.19-.34-.08.06-.15.11-.24.15-.08.04-.14.06-.19.06-.07,0-.11-.03-.11-.08,0-.03.02-.07.07-.12.04-.04.08-.08.11-.11s.06-.06.08-.09c-.17-.14-.31-.31-.42-.5-.11-.19-.16-.39-.15-.62,0-.22.05-.4.13-.52.08-.12.23-.18.44-.18s.37.09.51.25c.13.16.2.38.19.67,0,.2-.05.41-.14.63Zm-.27-.14c.07-.15.1-.32.1-.53,0-.13-.03-.23-.1-.31-.07-.08-.14-.12-.22-.12s-.14.02-.18.08c-.04.05-.06.12-.06.21,0,.26.15.48.46.68Zm2.94.18c0-.18-.13-.34-.4-.48.03.15.06.27.08.37.02.1.04.18.05.25.02.06.03.11.05.14s.04.04.07.04c.05,0,.09-.03.11-.1.02-.07.04-.14.04-.22Z"/>
  </g>
</svg>