<svg width="38" height="239" viewBox="0 0 38 239" fill="none" xmlns="http://www.w3.org/2000/svg">
<path fill-rule="evenodd" clip-rule="evenodd" d="M13.496 16.2987C14.0241 19.1173 16.4977 21.2503 19.4696 21.2503C22.4404 21.2503 24.9134 19.1188 25.4425 16.3017L37.9688 50.0016H0.96875L13.496 16.2987Z" fill="#F8E7BE"/>
<path fill-rule="evenodd" clip-rule="evenodd" d="M13.4951 16.2987C14.0231 19.1173 16.4968 21.2503 19.4686 21.2503C22.4395 21.2503 24.9125 19.1188 25.4416 16.3016L19.4678 0.22998L13.4951 16.2987Z" fill="#262626"/>
<rect x="0.995117" y="49.9147" width="36.9472" height="156.698" fill="#F9C32D"/>
<rect x="0.995117" y="206.612" width="36.9472" height="13.0292" fill="#BA9A4E"/>
<path d="M0.995117 219.642H37.9423V228.23C37.9423 233.753 33.4651 238.23 27.9423 238.23H10.9951C5.47227 238.23 0.995117 233.753 0.995117 228.23L0.995117 219.642Z" fill="#F9C32D"/>
</svg>
