<svg width="38" height="239" viewBox="0 0 38 239" fill="none" xmlns="http://www.w3.org/2000/svg">
<path fill-rule="evenodd" clip-rule="evenodd" d="M13.0712 16.2893C13.5993 19.1079 16.0729 21.2409 19.0448 21.2409C22.0156 21.2409 24.4886 19.1094 25.0177 16.2923L37.5439 49.9922L0.543945 49.9922L13.0712 16.2893Z" fill="#F8E7BE"/>
<path fill-rule="evenodd" clip-rule="evenodd" d="M13.0703 16.2893C13.5983 19.1079 16.072 21.2409 19.0438 21.2409C22.0147 21.2409 24.4877 19.1094 25.0168 16.2922L19.043 0.220581L13.0703 16.2893Z" fill="#262626"/>
<rect x="0.570312" y="49.9052" width="36.9472" height="156.698" fill="#DFA14A"/>
<rect x="0.570312" y="206.603" width="36.9472" height="13.0292" fill="#E1BEAD"/>
<path d="M0.570312 219.632H37.5175V228.221C37.5175 233.743 33.0403 238.221 27.5175 238.221H10.5703C5.04747 238.221 0.570312 233.743 0.570312 228.221V219.632Z" fill="#DFA14A"/>
</svg>
