<svg width="154" height="103" viewBox="0 0 154 103" fill="none" xmlns="http://www.w3.org/2000/svg">
<path d="M150.878 74.3989C148.078 78.6489 143.458 81.3589 138.388 81.7389C135.468 81.9489 132.578 81.3789 130.018 80.1289C129.198 81.4889 128.178 82.7589 126.958 83.8789C123.038 87.4789 117.838 88.9089 112.898 88.1389C112.718 88.9289 112.478 89.7089 112.188 90.4789C110.248 95.6189 106.188 99.6889 101.048 101.649C95.9078 103.609 90.1678 103.269 85.2978 100.719C81.1078 98.5189 77.8878 94.8689 76.2378 90.4789C62.2078 93.0089 47.8378 86.0489 41.3078 72.9589C36.2078 75.7289 30.1878 76.5989 24.3578 75.2389C16.8378 73.4689 10.6878 68.2489 7.70781 61.2689C6.27781 60.9789 4.90781 60.3489 3.72781 59.4289C1.43781 57.6389 0.0878107 54.9189 0.0378107 52.0189C-0.0121893 49.1189 1.24781 46.3489 3.46781 44.4789C5.22781 43.0089 7.44781 42.2189 9.70781 42.2289C6.95781 45.2189 6.91781 49.7989 9.61781 52.8289C10.4478 53.7589 11.4478 54.4489 12.5378 54.8789C13.2878 61.2589 17.6578 66.7389 23.8778 68.8089C29.7978 70.7689 36.2078 69.2589 40.6178 65.0989C43.9778 68.6189 48.4678 70.9189 53.3578 71.5789C57.7878 72.1789 62.2578 71.3989 66.1878 69.3889C66.7378 74.2089 70.0078 78.3789 74.7078 79.9889C79.1578 81.5189 84.0178 80.4489 87.4078 77.3589C92.0178 80.8489 98.0678 81.9989 103.728 80.3189C108.998 78.7589 113.208 74.9489 115.338 70.0389C119.378 72.4489 124.338 72.9189 128.808 71.2189C131.468 70.2189 133.748 68.5189 135.458 66.3789C139.268 67.7389 143.538 66.5589 146.118 63.4089C148.788 60.1489 149.028 55.5489 146.728 52.0289C149.478 53.9889 151.578 56.7689 152.698 60.0389C154.358 64.8489 153.678 70.1589 150.878 74.3989Z" fill="#DCE8EF"/>
<path d="M146.118 63.4089C143.538 66.5589 139.268 67.7389 135.458 66.3789C133.748 68.5189 131.468 70.2189 128.808 71.2189C124.338 72.9189 119.378 72.4489 115.338 70.0389C113.208 74.9489 108.998 78.7589 103.728 80.3189C98.0677 81.9989 92.0177 80.8489 87.4077 77.3589C84.0177 80.4489 79.1577 81.5189 74.7077 79.9889C70.0077 78.3789 66.7377 74.2089 66.1877 69.3889C62.2577 71.3989 57.7877 72.1789 53.3577 71.5789C48.4677 70.9189 43.9777 68.6189 40.6177 65.0989C36.2077 69.2589 29.7977 70.7689 23.8777 68.8089C17.6577 66.7389 13.2877 61.2589 12.5377 54.8789C11.4477 54.4489 10.4477 53.7589 9.61769 52.8289C6.91769 49.7989 6.95769 45.2189 9.70769 42.2289C11.4677 38.1089 15.0677 34.9389 19.5577 33.7989C22.3377 33.0989 25.1977 33.2389 27.7977 34.1189C30.9577 27.4189 36.9977 22.3889 44.3777 20.5589C47.8977 19.6889 51.4777 19.6089 54.9177 20.2589C59.3277 7.89891 71.3477 -0.42109 84.8077 0.14891C96.4577 0.62891 106.478 7.65891 111.148 17.7789C115.208 17.1189 119.418 17.8489 123.068 19.9489C126.828 22.1089 129.638 25.5089 131.088 29.4989C137.278 29.3089 143.188 32.6689 146.118 38.3589C148.368 42.7189 148.488 47.7089 146.728 52.0289C149.028 55.5489 148.788 60.1489 146.118 63.4089Z" fill="#F9FBFC"/>
<path d="M127.958 61.0289C129.178 62.2889 130.328 63.0589 131.488 63.5589C132.638 64.0489 133.758 64.2489 134.888 64.2389C136.008 64.2189 137.128 63.9989 138.268 63.4789C139.408 62.9589 140.548 62.1689 141.748 60.8789C142.178 62.6089 141.518 64.5589 140.208 65.9589C138.898 67.3689 136.928 68.2289 134.938 68.2389C132.948 68.2689 130.958 67.4489 129.618 66.0689C128.278 64.6989 127.578 62.7689 127.968 61.0289H127.958Z" fill="#DCE8EF"/>
<path d="M54.0779 59.3789C53.2679 61.6689 51.5079 63.6089 49.3479 64.9189C47.1879 66.2289 44.5979 66.9089 42.0179 66.8389C39.4379 66.7789 36.8879 65.9689 34.7879 64.5589C32.6979 63.1389 31.0479 61.1189 30.3479 58.7889C32.3779 60.1089 34.2779 61.0989 36.2279 61.7689C38.1779 62.4389 40.1379 62.7989 42.1079 62.8489C44.0779 62.8989 46.0579 62.6489 48.0379 62.0689C50.0279 61.4989 51.9779 60.5989 54.0579 59.3889L54.0779 59.3789Z" fill="#DCE8EF"/>
<path d="M75.2479 68.5389C77.1279 71.6589 79.5279 73.7189 82.1379 74.8089C84.7379 75.9089 87.4879 76.0789 89.9979 75.3889C92.5179 74.7089 94.8179 73.1989 96.4979 70.9389C98.1979 68.6789 99.2579 65.6989 99.3179 62.0589C101.678 64.8889 102.208 69.3289 100.668 73.1389C99.9379 75.0589 98.6679 76.7989 97.1079 78.2089C95.5179 79.5989 93.6079 80.6389 91.5479 81.1889C87.4379 82.3389 82.8379 81.3689 79.6279 78.7989C76.3879 76.2789 74.6279 72.1689 75.2379 68.5389H75.2479Z" fill="#DCE8EF"/>
</svg>
