<svg width="363" height="131" viewBox="0 0 363 131" fill="none" xmlns="http://www.w3.org/2000/svg">
<path d="M362.029 78.137C361.669 84.657 357.009 90.137 350.629 91.557C345.339 92.737 339.929 90.867 336.479 86.897C334.599 88.677 332.229 89.947 329.579 90.467C325.409 91.297 321.159 90.187 317.959 87.587C314.489 91.597 309.629 94.297 304.219 95.057C297.709 95.977 291.209 93.977 286.379 89.717C284.549 91.657 282.189 93.087 279.509 93.787C275.039 94.967 270.319 93.927 266.779 91.097C263.649 95.377 258.869 98.317 253.429 99.057C249.199 99.627 244.989 98.817 241.369 96.867C238.799 99.727 235.379 101.797 231.499 102.687C226.449 103.857 221.209 102.907 216.939 100.187C213.649 106.227 208.609 111.237 202.359 114.477C193.969 118.827 184.219 119.567 175.339 116.607C170.939 123.377 163.909 128.207 155.729 129.747C146.219 131.537 136.549 128.617 129.649 122.127C120.369 129.417 108.279 132.457 96.4385 130.187C84.3585 127.867 74.0685 120.287 68.2185 109.717C62.2385 112.927 55.3586 114.347 48.3986 113.627C39.9786 112.757 32.3085 108.837 26.6985 102.777C24.0685 105.577 20.4485 107.347 16.4985 107.617C10.8085 108.017 5.35855 105.237 2.33855 100.407C-0.00145435 96.657 -0.591454 92.157 0.588546 88.017C2.34855 93.077 6.76855 96.827 12.1785 97.667C17.5686 98.497 22.8985 96.247 26.0985 91.987C28.4785 96.007 32.7886 98.587 37.5686 98.727C42.0386 98.847 46.2086 96.807 48.8686 93.377C51.5886 96.317 55.7585 97.657 59.8186 96.647C63.1885 95.807 65.8585 93.497 67.2485 90.527C75.1785 101.487 89.1485 106.707 102.579 103.237C114.179 100.237 122.999 91.367 126.229 80.347C129.219 87.557 136.109 92.757 144.339 93.267C153.589 93.837 161.889 88.317 165.159 80.057C168.069 89.747 176.679 96.737 186.909 97.487C196.309 98.167 205.119 93.427 209.809 85.537C213.109 90.547 218.879 93.487 224.989 93.087C230.909 92.687 236.099 89.227 238.789 84.117C242.279 87.357 247.119 88.827 251.899 87.987C256.279 87.217 260.059 84.617 262.329 80.937C265.509 84.177 270.399 85.287 274.759 83.547C278.939 81.887 281.669 77.987 281.959 73.667C291.909 81.607 305.989 81.907 316.259 74.457C319.399 79.157 324.759 81.987 330.499 81.877C335.339 81.787 339.819 79.617 342.879 76.057C346.009 78.757 350.409 79.627 354.389 78.207C357.419 77.127 359.799 74.877 361.069 72.067C361.809 73.957 362.149 76.017 362.029 78.137Z" fill="#DCE8EF"/>
<path d="M361.069 72.067C359.799 74.877 357.419 77.127 354.389 78.207C350.409 79.627 346.009 78.757 342.879 76.057C339.819 79.617 335.339 81.787 330.499 81.877C324.759 81.987 319.399 79.157 316.259 74.457C305.989 81.907 291.909 81.607 281.959 73.667C281.669 77.987 278.939 81.887 274.759 83.547C270.399 85.287 265.509 84.177 262.329 80.937C260.059 84.617 256.279 87.217 251.899 87.987C247.119 88.827 242.279 87.357 238.789 84.117C236.099 89.227 230.909 92.687 224.989 93.087C218.879 93.487 213.109 90.547 209.809 85.537C205.119 93.427 196.309 98.167 186.909 97.487C176.679 96.737 168.069 89.747 165.159 80.057C161.889 88.317 153.589 93.837 144.339 93.267C136.109 92.757 129.219 87.557 126.229 80.347C122.999 91.367 114.179 100.237 102.579 103.237C89.1486 106.707 75.1786 101.487 67.2486 90.527C65.8586 93.497 63.1886 95.807 59.8186 96.647C55.7586 97.657 51.5886 96.317 48.8686 93.377C46.2086 96.807 42.0386 98.847 37.5686 98.727C32.7886 98.587 28.4786 96.007 26.0986 91.987C22.8986 96.247 17.5686 98.497 12.1786 97.667C6.76863 96.827 2.34862 93.077 0.588623 88.017C0.918623 86.807 1.40862 85.637 2.05862 84.517C4.75862 79.847 9.67863 76.927 15.0386 76.807C15.0586 73.487 16.5386 70.247 19.2886 68.057C22.7686 65.287 27.4486 64.877 31.2686 66.767C32.5386 64.747 34.5486 63.307 36.8786 62.767C37.3986 62.647 37.9286 62.567 38.4586 62.537C38.3386 61.587 38.3086 60.627 38.3686 59.657C38.6286 55.477 40.5986 51.587 43.8086 48.907C46.8686 46.357 50.8086 45.107 54.7686 45.427C54.3886 40.907 55.9786 36.327 59.3186 32.987C61.7886 30.507 64.9386 28.987 68.2486 28.507C72.7686 12.667 86.8786 1.057 103.769 0.0670049C119.639 -0.862995 134.169 7.80701 141.139 21.467C145.039 19.077 149.889 18.427 154.429 19.917C160.249 21.817 164.399 26.847 165.269 32.787C173.069 29.347 181.979 29.027 190.089 32.037C197.329 34.727 203.309 39.827 207.119 46.357C212.469 41.967 219.689 40.187 226.689 41.857C233.169 43.417 238.469 47.697 241.429 53.367C245.269 48.947 250.829 46.237 256.859 46.057C262.249 45.897 267.389 47.787 271.329 51.187C274.589 38.967 285.889 30.287 298.899 30.677C311.419 31.057 321.849 39.717 324.869 51.407C329.339 51.117 333.839 52.227 337.729 54.657C340.999 56.697 343.609 59.557 345.369 62.877C347.619 62.547 349.959 62.747 352.219 63.517C356.389 64.957 359.559 68.147 361.069 72.067Z" fill="#F9FBFC"/>
<path d="M155.668 74.117C157.098 76.117 158.708 77.557 160.478 78.507C162.248 79.457 164.138 79.907 166.018 79.887C167.908 79.857 169.788 79.367 171.528 78.377C173.278 77.387 174.848 75.917 176.238 73.887C176.478 76.357 175.378 78.987 173.468 80.857C171.558 82.747 168.818 83.877 166.058 83.887C163.298 83.927 160.538 82.857 158.588 81.017C156.638 79.187 155.478 76.587 155.658 74.117H155.668Z" fill="#DCE8EF"/>
<path d="M117.149 76.167C118.419 77.577 119.659 78.487 120.939 79.067C122.219 79.647 123.489 79.897 124.769 79.887C126.049 79.867 127.309 79.587 128.579 78.977C129.849 78.367 131.069 77.437 132.309 75.997C132.699 77.877 131.959 79.957 130.519 81.457C129.089 82.967 126.959 83.877 124.819 83.887C122.669 83.917 120.529 83.047 119.069 81.577C117.609 80.117 116.809 78.047 117.159 76.167H117.149Z" fill="#DCE8EF"/>
<path d="M54.1187 80.567C56.6587 83.697 59.3886 86.077 62.4086 87.727C65.3986 89.407 68.6286 90.307 71.8886 90.537C75.1486 90.727 78.4686 90.247 81.6586 88.997C84.8586 87.747 87.8886 85.757 90.8186 82.997C90.0886 86.997 87.4786 90.677 83.9386 93.127C80.3986 95.597 75.8986 96.817 71.4986 96.517C67.0986 96.217 62.7987 94.437 59.6187 91.497C56.4287 88.607 54.3287 84.607 54.1187 80.557V80.567Z" fill="#DCE8EF"/>
<path d="M221.229 75.907C224.219 78.607 227.269 80.547 230.509 81.717C233.719 82.917 237.049 83.317 240.309 83.057C243.559 82.747 246.769 81.767 249.729 80.047C252.699 78.327 255.389 75.897 257.869 72.717C257.759 76.777 255.729 80.817 252.609 83.777C249.479 86.757 245.229 88.647 240.829 89.027C236.429 89.397 231.909 88.287 228.329 85.877C224.739 83.507 222.049 79.877 221.229 75.897V75.907Z" fill="#DCE8EF"/>
<path d="M302.969 68.027C305.059 69.997 307.238 71.437 309.568 72.307C311.878 73.197 314.298 73.507 316.668 73.317C319.028 73.097 321.358 72.367 323.488 71.097C325.628 69.827 327.538 68.047 329.258 65.747C329.118 68.637 327.649 71.497 325.409 73.587C323.169 75.697 320.138 77.027 317.018 77.297C313.898 77.557 310.678 76.787 308.118 75.087C305.548 73.417 303.619 70.857 302.969 68.037V68.027Z" fill="#DCE8EF"/>
</svg>
