<svg width="95" height="77" viewBox="0 0 95 77" fill="none" xmlns="http://www.w3.org/2000/svg">
<path d="M57.6553 38.104C80.2997 22.3576 91.0736 35.118 94.1256 44.7205C94.3455 45.4123 93.7316 46.0597 93.0086 45.995C82.2266 45.031 73.8126 55.0864 70.8521 60.4779C62.9122 76.8094 45.6344 76.176 37.9881 73.8179C21.1954 67.7588 10.279 71.5467 5.22252 76.0102C4.73988 76.4362 3.9765 76.3673 3.65597 75.809C-1.79258 66.3185 0.253287 53.0376 2.35824 46.2226C2.57004 45.5368 3.42219 45.3314 3.96513 45.8008C13.8549 54.3507 21.7058 52.7547 25.1461 50.4151C25.6013 50.1056 25.6278 49.4703 25.2769 49.0463C13.0997 34.332 20.276 12.3006 26.2512 1.43567C26.6512 0.708449 27.7025 0.800933 28.0243 1.56595C35.5479 19.4515 49.6524 33.0155 56.4839 38.105C56.8267 38.3603 57.3044 38.348 57.6553 38.104Z" fill="#D9E0CE"/>
<path d="M46.2842 15.3995L49.4991 5.69713C49.7402 4.9698 50.6768 4.77719 51.1741 5.36006C58.9488 14.4713 60.9518 22.5019 61.0023 26.0348C61.0078 26.418 60.7637 26.7513 60.4091 26.8965L57.3936 28.1312C56.9935 28.2951 56.5334 28.1832 56.2532 27.854L46.4719 16.3622C46.2454 16.0962 46.1743 15.7312 46.2842 15.3995Z" fill="#D9E0CE"/>
</svg>
