<svg width="160" height="76" viewBox="0 0 160 76" fill="none" xmlns="http://www.w3.org/2000/svg">
<path d="M158.143 65.3047C155.091 71.5301 148.79 75.5235 141.85 75.5994C136.764 75.6602 131.966 73.6255 128.519 70.0877C125.467 73.8988 120.578 75.9638 115.552 75.3261C111.073 74.7643 107.216 72.1527 104.999 68.4326C97.2098 72.183 88.0842 72.5171 79.9001 69.1463C79.2776 68.8881 78.6702 68.6148 78.078 68.3263C72.2474 72.1982 65.3691 74.4606 58.1112 74.658C45.1897 75.0073 33.0729 68.7515 25.8454 58.2442C22.0798 61.7973 16.7047 63.3004 11.5269 61.9795C5.01305 60.3244 0.351585 54.6153 0.0175386 47.904C-0.0887488 45.6719 0.290844 43.5006 1.08041 41.5267C1.94589 45.1709 4.51198 48.2532 8.11057 49.726C12.1495 51.3811 16.7047 50.6674 20.0148 48.0254C23.6437 51.4874 28.3811 53.5979 33.4222 53.9472C38.1595 54.2812 42.8362 53.0513 46.7536 50.4852C53.0853 55.253 61.2846 56.9839 69.0892 55.1011C75.9219 53.4461 81.7525 49.1946 85.3967 43.364C87.9172 48.071 92.7609 51.1685 98.1967 51.3963C102.053 51.5633 105.728 50.2423 108.567 47.8584C109.433 51.3659 112.136 54.266 115.795 55.2226C118.801 56.0122 121.914 55.3593 124.283 53.5979C125.953 55.8148 128.322 57.4395 131.04 58.1835C134.35 59.0945 137.872 58.6238 140.833 56.8777C143.794 55.1467 145.92 52.2921 146.725 48.9516C147.544 45.6264 146.983 42.1037 145.161 39.2036C149.503 40.0387 153.481 42.4529 156.26 46.1123C160.451 51.6392 161.18 59.0641 158.143 65.3047Z" fill="#DCE8EF"/>
<path d="M146.725 48.9517C145.92 52.2921 143.794 55.1467 140.833 56.8777C137.872 58.6238 134.35 59.0945 131.04 58.1835C128.322 57.4395 125.953 55.8148 124.283 53.598C121.914 55.3593 118.801 56.0122 115.795 55.2226C112.136 54.266 109.433 51.3659 108.567 47.8584C105.728 50.2423 102.053 51.5633 98.1967 51.3963C92.7609 51.1685 87.9172 48.071 85.3967 43.364C81.7525 49.1946 75.9219 53.4461 69.0892 55.1012C61.2846 56.984 53.0853 55.253 46.7536 50.4852C42.8362 53.0513 38.1595 54.2812 33.4222 53.9472C28.3811 53.5979 23.6437 51.4874 20.0148 48.0254C16.7047 50.6674 12.1495 51.3811 8.11057 49.7261C4.51199 48.2532 1.9459 45.1709 1.08041 41.5267C2.65954 37.5334 5.87853 34.284 10.0997 32.7656C12.9391 31.7483 15.9151 31.6116 18.7089 32.2494C19.0582 31.0043 19.5896 29.8048 20.3033 28.7115C22.2012 25.7658 25.1925 23.6856 28.6392 22.972C31.7216 22.3343 34.9254 22.8353 37.6433 24.3386C40.1334 17.7791 45.1138 12.3129 51.6884 9.26092C58.9463 5.87491 67.2216 5.89009 74.358 9.06353C78.5488 2.71665 86.1407 -0.942664 94.0819 0.211313C102.494 1.42603 109.008 7.71216 110.83 15.623C118.71 13.2391 127.335 14.6057 134.137 19.5101C140.605 24.1563 144.584 31.4142 145.161 39.2036C146.983 42.1037 147.544 45.6264 146.725 48.9517Z" fill="#F9FBFC"/>
<path d="M36.216 44.2295C37.7647 46.2337 39.435 47.6307 41.2267 48.5417C43.0184 49.4527 44.886 49.8779 46.7536 49.8627C48.6212 49.8323 50.4737 49.3768 52.235 48.4202C54.0115 47.4636 55.6362 46.0363 57.1546 44.0017C57.5038 46.5374 56.4106 49.2857 54.4519 51.2444C52.4931 53.2183 49.6689 54.4027 46.7992 54.4179C43.9446 54.4634 41.0748 53.3398 39.0857 51.4115C37.0814 49.4983 35.9427 46.7804 36.216 44.2446V44.2295Z" fill="#DCE8EF"/>
<path d="M117.997 47.2359C119.545 49.2402 121.216 50.6371 123.007 51.5481C124.799 52.4592 126.667 52.8843 128.534 52.8691C130.402 52.8388 132.254 52.3832 134.016 51.4267C135.792 50.4701 137.417 49.0428 138.935 47.0081C139.284 49.5438 138.191 52.2921 136.232 54.2509C134.274 56.2248 131.449 57.4091 128.58 57.4243C125.725 57.4699 122.855 56.3462 120.866 54.4179C118.862 52.5047 117.723 49.7868 117.997 47.2511V47.2359Z" fill="#DCE8EF"/>
<path d="M104.301 34.9673C103.071 38.4444 100.398 41.3901 97.1187 43.3792C93.8389 45.3683 89.9063 46.4008 85.9888 46.2945C82.0714 46.2034 78.1995 44.9735 75.0109 42.8326C71.8374 40.6764 69.3321 37.6093 68.2692 34.0715C71.3516 36.0757 74.2365 37.5789 77.1974 38.5963C80.1582 39.6136 83.1343 40.1602 86.1255 40.2361C89.1168 40.312 92.1232 39.9324 95.1296 39.0518C98.1512 38.1863 101.112 36.8197 104.27 34.9825L104.301 34.9673Z" fill="#DCE8EF"/>
</svg>
