<svg width="160" height="76" viewBox="0 0 160 76" fill="none" xmlns="http://www.w3.org/2000/svg">
<path d="M1.85718 65.3047C4.90913 71.5301 11.2105 75.5235 18.1495 75.5994C23.2361 75.6602 28.0342 73.6255 31.481 70.0877C34.533 73.8988 39.4222 75.9639 44.4481 75.3261C48.9273 74.7643 52.784 72.1527 55.0009 68.4326C62.7902 72.183 71.9158 72.5171 80.0999 69.1463C80.7224 68.8881 81.3298 68.6148 81.922 68.3263C87.7526 72.1982 94.6309 74.4606 101.889 74.658C114.81 75.0073 126.927 68.7515 134.155 58.2442C137.92 61.7973 143.295 63.3005 148.473 61.9795C154.987 60.3244 159.648 54.6153 159.982 47.904C160.089 45.6719 159.709 43.5006 158.92 41.5267C158.054 45.1709 155.488 48.2532 151.889 49.726C147.851 51.3811 143.295 50.6674 139.985 48.0254C136.356 51.4874 131.619 53.5979 126.578 53.9472C121.84 54.2812 117.164 53.0513 113.246 50.4852C106.915 55.253 98.7154 56.9839 90.9108 55.1011C84.0781 53.4461 78.2475 49.1946 74.6033 43.364C72.0828 48.071 67.2391 51.1685 61.8033 51.3963C57.9465 51.5633 54.272 50.2423 51.4326 47.8584C50.5672 51.3659 47.8644 54.266 44.2051 55.2226C41.1987 56.0122 38.086 55.3593 35.7173 53.5979C34.0471 55.8148 31.6784 57.4395 28.9605 58.1835C25.6504 59.0945 22.1277 58.6238 19.1668 56.8777C16.206 55.1467 14.0802 52.2921 13.2755 48.9517C12.4556 45.6264 13.0173 42.1037 14.8394 39.2036C10.4968 40.0387 6.51865 42.4529 3.73999 46.1123C-0.450775 51.6392 -1.17961 59.0641 1.85718 65.3047Z" fill="#DCE8EF"/>
<path d="M13.2755 48.9517C14.0802 52.2921 16.2059 55.1467 19.1668 56.8777C22.1277 58.6238 25.6503 59.0945 28.9604 58.1835C31.6784 57.4395 34.0471 55.8148 35.7173 53.598C38.086 55.3593 41.1987 56.0122 44.2051 55.2226C47.8644 54.266 50.5671 51.3659 51.4326 47.8584C54.272 50.2423 57.9465 51.5633 61.8032 51.3963C67.2391 51.1685 72.0828 48.071 74.6033 43.364C78.2474 49.1946 84.078 53.4461 90.9108 55.1012C98.7153 56.984 106.915 55.253 113.246 50.4852C117.164 53.0513 121.84 54.2812 126.578 53.9472C131.619 53.5979 136.356 51.4874 139.985 48.0254C143.295 50.6674 147.85 51.3811 151.889 49.7261C155.488 48.2532 158.054 45.1709 158.92 41.5267C157.34 37.5334 154.121 34.284 149.9 32.7656C147.061 31.7483 144.085 31.6116 141.291 32.2494C140.942 31.0043 140.41 29.8048 139.697 28.7115C137.799 25.7658 134.807 23.6856 131.361 22.972C128.278 22.3343 125.075 22.8353 122.357 24.3386C119.867 17.7791 114.886 12.3129 108.312 9.26092C101.054 5.87491 92.7784 5.89009 85.642 9.06353C81.4512 2.71665 73.8593 -0.942664 65.9181 0.211313C57.5062 1.42603 50.9923 7.71216 49.1702 15.623C41.2898 13.2391 32.6653 14.6057 25.8629 19.5101C19.3946 24.1563 15.4164 31.4142 14.8394 39.2036C13.0173 42.1037 12.4555 45.6264 13.2755 48.9517Z" fill="#F9FBFC"/>
<path d="M123.784 44.2295C122.235 46.2337 120.565 47.6307 118.773 48.5417C116.982 49.4527 115.114 49.8779 113.246 49.8627C111.379 49.8323 109.526 49.3768 107.765 48.4202C105.988 47.4636 104.364 46.0364 102.845 44.0017C102.496 46.5374 103.589 49.2857 105.548 51.2444C107.507 53.2184 110.331 54.4027 113.201 54.4179C116.055 54.4634 118.925 53.3398 120.914 51.4115C122.919 49.4983 124.057 46.7804 123.784 44.2447V44.2295Z" fill="#DCE8EF"/>
<path d="M42.0035 47.2359C40.4548 49.2402 38.7845 50.6371 36.9928 51.5481C35.2011 52.4592 33.3335 52.8843 31.4659 52.8691C29.5983 52.8388 27.7458 52.3832 25.9845 51.4267C24.208 50.4701 22.5833 49.0428 21.0649 47.0081C20.7157 49.5438 21.8089 52.2921 23.7676 54.2509C25.7263 56.2248 28.5506 57.4091 31.4203 57.4243C34.2749 57.4699 37.1447 56.3462 39.1338 54.4179C41.138 52.5047 42.2768 49.7868 42.0035 47.2511V47.2359Z" fill="#DCE8EF"/>
<path d="M55.6993 34.9673C56.9292 38.4444 59.6016 41.3901 62.8813 43.3792C66.161 45.3683 70.0936 46.4008 74.0111 46.2945C77.9285 46.2034 81.8004 44.9735 84.9891 42.8326C88.1625 40.6764 90.6678 37.6093 91.7307 34.0715C88.6484 36.0757 85.7634 37.5789 82.8026 38.5963C79.8417 39.6136 76.8656 40.1602 73.8744 40.2361C70.8832 40.312 67.8768 39.9324 64.8704 39.0518C61.8488 38.1863 58.8879 36.8197 55.7296 34.9825L55.6993 34.9673Z" fill="#DCE8EF"/>
</svg>
