<svg width="135" height="80" viewBox="0 0 135 80" fill="none" xmlns="http://www.w3.org/2000/svg">
<path d="M134.215 50.3155C133.678 54.5392 130.905 58.1532 126.957 59.7643C124.867 60.6206 122.618 60.8384 120.47 60.461C119.018 63.059 116.464 64.9604 113.416 65.5555C110.136 66.1796 106.855 65.1926 104.489 63.0445C101.311 67.3843 96.347 70.1565 90.8897 70.5193C85.2872 70.8822 79.8734 68.676 76.1287 64.5975C71.3971 73.2915 62.4128 78.8505 52.4851 79.1989C42.5864 79.5472 33.2828 74.6849 27.927 66.4408C24.4436 67.2536 20.757 66.8908 17.4333 65.3232C13.1225 63.3057 9.94393 59.4885 8.72473 54.9601C10.7857 58.8499 14.8497 61.2447 19.2475 61.1577C22.7309 61.0706 25.9531 59.445 28.0722 56.7889C32.02 61.3319 38.087 63.6106 44.1829 62.6236C49.9161 61.6947 54.7057 58.0226 57.1586 52.9571C59.0019 55.0327 61.7597 56.2083 64.677 55.9616C67.5508 55.7148 70.0473 54.1328 71.4987 51.8105C74.5902 56.4841 80.3669 58.8644 86.0419 57.4711C90.9768 56.2519 94.6634 52.4782 95.9116 47.8336C97.4791 49.6914 99.8449 50.8236 102.428 50.7945C104.881 50.7655 107.131 49.6914 108.67 47.9497C112.022 53.0152 118.322 55.4971 124.359 53.8425C128.786 52.6233 132.197 49.4157 133.808 45.3952C134.287 46.9628 134.432 48.6319 134.215 50.3155Z" fill="#DCE8EF"/>
<path d="M133.808 45.3953C132.197 49.4157 128.786 52.6233 124.359 53.8425C118.321 55.4972 112.022 53.0152 108.669 47.9497C107.131 49.6914 104.881 50.7655 102.428 50.7945C99.8448 50.8236 97.479 49.6915 95.9114 47.8336C94.6632 52.4782 90.9766 56.2519 86.0418 57.4711C80.3667 58.8645 74.59 56.4841 71.4985 51.8105C70.0471 54.1328 67.5507 55.7149 64.6768 55.9616C61.7595 56.2083 59.0018 55.0327 57.1585 52.9571C54.7056 58.0226 49.9159 61.6947 44.1828 62.6236C38.0868 63.6106 32.0199 61.3319 28.072 56.7889C25.9529 59.445 22.7308 61.0706 19.2474 61.1577C14.8496 61.2448 10.7856 58.8499 8.72456 54.9601C7.5344 54.9311 6.32972 54.6263 5.24115 54.0747C2.75922 52.8265 1.06106 50.4027 0.741747 47.6305C0.422434 44.8728 1.511 42.1295 3.64459 40.3298C4.34127 39.7492 5.12504 39.2848 5.95235 38.9655C5.53144 35.7143 6.50389 32.347 8.82616 29.7779C11.2645 27.0928 14.7189 25.772 18.1443 26.0042C17.4186 20.7501 18.5507 15.3508 21.3955 10.7934C24.8789 5.2054 30.5975 1.38815 37.0998 0.314102C43.5877 -0.774464 50.2352 0.996265 55.3297 5.16185C57.7245 7.10675 59.6694 9.48708 61.0773 12.1432C65.4751 9.55965 70.9905 9.41451 75.5915 11.969C79.0314 13.8849 81.4843 17.0345 82.5438 20.634C88.2044 17.8182 94.968 17.7456 100.774 20.7356C105.433 23.1159 108.858 27.1219 110.556 31.839C112.966 31.0552 115.68 31.3165 117.944 32.7534C119.599 33.7839 120.789 35.3079 121.456 37.006C124.33 36.7593 127.233 37.5576 129.599 39.3428C131.645 40.8813 133.097 43.0149 133.808 45.3953Z" fill="#F9FBFC"/>
<path d="M61.5128 45.0324C62.9932 46.9483 64.5898 48.2836 66.3025 49.1544C68.0151 50.0253 69.8004 50.4317 71.5856 50.4171C73.3709 50.3881 75.1416 49.9527 76.8253 49.0383C78.5234 48.1239 80.0765 46.7596 81.5279 44.8147C81.8617 47.2386 80.8167 49.8656 78.9443 51.7379C77.072 53.6248 74.3724 54.7569 71.6292 54.7714C68.9005 54.815 66.1573 53.7409 64.256 51.8976C62.3401 50.0688 61.2515 47.4707 61.5128 45.0469V45.0324Z" fill="#DCE8EF"/>
<path d="M103.444 44.8437C105.302 47.0353 107.334 47.8336 109.352 47.8336C111.384 47.7901 113.386 46.9483 115.201 44.7131C115.462 46.1645 114.867 47.7466 113.764 48.8932C112.661 50.0398 111.035 50.7365 109.381 50.7365C107.74 50.7655 106.086 50.0979 104.968 48.9803C103.836 47.8627 103.212 46.2951 103.444 44.8437Z" fill="#DCE8EF"/>
<path d="M41.1204 52.6668C40.2786 55.0907 38.4353 57.1518 36.1711 58.5451C33.8924 59.9385 31.1492 60.6642 28.435 60.5916C25.7064 60.5336 23.0067 59.6772 20.8006 58.1677C18.5944 56.6583 16.8672 54.5102 16.156 52.0427C18.3186 53.4071 20.3216 54.4376 22.3826 55.1343C24.4291 55.831 26.4901 56.1938 28.5511 56.2519C30.6122 56.3099 32.6877 56.0487 34.7777 55.4536C36.8678 54.873 38.9288 53.9441 41.1495 52.6814L41.1204 52.6668Z" fill="#DCE8EF"/>
</svg>
