<svg width="137" height="82" viewBox="0 0 137 82" fill="none" xmlns="http://www.w3.org/2000/svg">
<path d="M0.101273 51.5858C0.651855 55.9161 3.49406 59.6214 7.5416 61.2732C9.68441 62.1511 11.9909 62.3743 14.1933 61.9874C15.6813 64.6511 18.3003 66.6004 21.4252 67.2105C24.7883 67.8504 28.1513 66.8385 30.5769 64.6362C33.8357 69.0855 38.9249 71.9277 44.52 72.2997C50.264 72.6717 55.8144 70.4099 59.6536 66.2284C64.5047 75.1419 73.7159 80.8412 83.8942 81.1984C94.0428 81.5555 103.581 76.5705 109.072 68.1183C112.644 68.9516 116.423 68.5795 119.831 66.9724C124.251 64.904 127.509 60.9904 128.759 56.3477C126.646 60.3357 122.48 62.791 117.971 62.7017C114.4 62.6124 111.096 60.9458 108.923 58.2226C104.876 62.8803 98.6558 65.2165 92.406 64.2046C86.5281 63.2523 81.6175 59.4875 79.1027 54.2941C77.2128 56.4221 74.3855 57.6274 71.3945 57.3744C68.4481 57.1215 65.8886 55.4994 64.4006 53.1185C61.231 57.9101 55.3085 60.3506 49.4902 58.922C44.4307 57.6721 40.651 53.8031 39.3713 49.0413C37.7642 50.946 35.3387 52.1067 32.6899 52.0769C30.1751 52.0472 27.8686 50.946 26.2912 49.1603C22.8538 54.3536 16.3956 56.8983 10.2052 55.2019C5.66663 53.9519 2.16968 50.6633 0.517929 46.5413C0.0268707 48.1484 -0.121933 49.8597 0.101273 51.5858Z" fill="#DCE8EF"/>
<path d="M0.51799 46.5413C2.16974 50.6633 5.6667 53.9519 10.2053 55.2019C16.3956 56.8983 22.8538 54.3536 26.2913 49.1603C27.8686 50.946 30.1751 52.0472 32.69 52.0769C35.3387 52.1067 37.7643 50.946 39.3714 49.0413C40.6511 53.8031 44.4308 57.6721 49.4902 58.9221C55.3085 60.3506 61.231 57.9101 64.4006 53.1186C65.8887 55.4995 68.4482 57.1215 71.3945 57.3745C74.3856 57.6274 77.2129 56.4221 79.1027 54.2941C81.6175 59.4875 86.5282 63.2523 92.406 64.2047C98.6559 65.2165 104.876 62.8803 108.924 58.2227C111.096 60.9458 114.4 62.6124 117.971 62.7017C122.48 62.791 126.646 60.3357 128.759 56.3477C129.98 56.3179 131.215 56.0054 132.331 55.4399C134.875 54.1602 136.616 51.6752 136.944 48.833C137.271 46.0056 136.155 43.1932 133.968 41.348C133.253 40.7527 132.45 40.2766 131.602 39.9492C132.033 36.616 131.036 33.1636 128.655 30.5297C126.155 27.7768 122.614 26.4227 119.102 26.6608C119.846 21.274 118.685 15.7384 115.769 11.0659C112.197 5.33681 106.334 1.4232 99.6678 0.322032C93.0161 -0.794017 86.2008 1.02142 80.9777 5.29216C78.5224 7.28617 76.5284 9.72659 75.0849 12.4498C70.5761 9.801 64.9215 9.6522 60.2043 12.2712C56.6776 14.2354 54.1627 17.4645 53.0765 21.1549C47.273 18.2681 40.3386 18.1937 34.3864 21.2591C29.6097 23.6995 26.0978 27.8066 24.3568 32.6428C21.8866 31.8393 19.1039 32.1071 16.7825 33.5803C15.0861 34.6368 13.8659 36.1993 13.1814 37.9403C10.2351 37.6873 7.25893 38.5058 4.83337 40.3361C2.7352 41.9134 1.24713 44.1009 0.51799 46.5413Z" fill="#F9FBFC"/>
<path d="M74.6385 46.1693C73.1207 48.1336 71.4838 49.5026 69.7279 50.3954C67.972 51.2882 66.1417 51.7049 64.3113 51.69C62.481 51.6603 60.6656 51.2138 58.9394 50.2763C57.1984 49.3389 55.6061 47.9401 54.1181 45.9461C53.7758 48.4312 54.8472 51.1246 56.7668 53.0442C58.6864 54.9786 61.4542 56.1393 64.2667 56.1542C67.0643 56.1989 69.8767 55.0977 71.8261 53.2078C73.7903 51.3329 74.9064 48.6692 74.6385 46.1842V46.1693Z" fill="#DCE8EF"/>
<path d="M31.6483 45.9759C29.7436 48.2228 27.6603 49.0413 25.5919 49.0413C23.5086 48.9966 21.455 48.1336 19.5949 45.8419C19.3271 47.33 19.9372 48.952 21.0681 50.1276C22.1991 51.3031 23.8657 52.0174 25.5621 52.0174C27.2436 52.0472 28.94 51.3627 30.0858 50.2168C31.2465 49.071 31.8864 47.4639 31.6483 45.9759Z" fill="#DCE8EF"/>
<path d="M95.5458 53.9965C96.4089 56.4816 98.2987 58.5947 100.62 60.0232C102.956 61.4517 105.769 62.1958 108.551 62.1214C111.349 62.0618 114.117 61.1839 116.379 59.6363C118.641 58.0887 120.411 55.8864 121.141 53.3566C118.923 54.7554 116.87 55.812 114.757 56.5262C112.659 57.2405 110.545 57.6125 108.432 57.672C106.319 57.7315 104.191 57.4637 102.049 56.8536C99.9058 56.2584 97.7928 55.306 95.516 54.0114L95.5458 53.9965Z" fill="#DCE8EF"/>
</svg>
