<svg width="273" height="270" viewBox="0 0 273 270" fill="none" xmlns="http://www.w3.org/2000/svg">
<g filter="url(#filter0_d_42_2)">
<path d="M130 198C163.137 198 190 171.137 190 138C190 104.863 163.137 78 130 78C96.8629 78 70 104.863 70 138C70 171.137 96.8629 198 130 198Z" fill="url(#paint0_radial_42_2)"/>
<path d="M130 198C163.137 198 190 171.137 190 138C190 104.863 163.137 78 130 78C96.8629 78 70 104.863 70 138C70 171.137 96.8629 198 130 198Z" fill="url(#paint1_linear_42_2)" fill-opacity="0.2"/>
</g>
<g filter="url(#filter1_d_42_2)">
<path d="M168.817 48.771C163.785 59.7658 157.746 68.5926 150.468 66.8892C143.19 65.1857 140.868 54.4233 142.494 42.422C146.132 15.0899 154.339 20.355 160.92 23.9167C168.74 28.0978 175.398 34.3695 168.74 48.8485L168.817 48.771Z" fill="url(#paint2_linear_42_2)"/>
</g>
<g filter="url(#filter2_d_42_2)">
<path d="M205.886 79.8367C198.221 84.1726 190.944 86.8052 187.46 82.7015C183.976 78.5978 187.072 71.3196 193.111 64.8931C206.815 50.3367 209.447 56.918 211.847 61.796C214.635 67.5257 215.951 74.107 205.886 79.7592V79.8367Z" fill="url(#paint3_linear_42_2)"/>
</g>
<g filter="url(#filter3_d_42_2)">
<path d="M201.463 187.329C196.199 182.374 192.328 177.341 194.728 173.547C197.128 169.753 203.631 170.528 210.057 173.702C224.767 180.98 220.277 184.619 217.025 187.639C213.154 191.278 208.354 193.833 201.463 187.329Z" fill="url(#paint4_linear_42_2)"/>
</g>
<g filter="url(#filter4_d_42_2)">
<path d="M111.351 46.0997C112.048 56.1653 111.196 65.1469 105.157 66.7729C99.1182 68.3989 93.0793 61.4304 89.5179 51.9842C81.2337 30.4593 89.363 31.0012 95.6342 31.0012C103.067 31.0012 110.499 32.8595 111.351 46.1771V46.0997Z" fill="url(#paint5_linear_42_2)"/>
</g>
<g filter="url(#filter5_d_42_2)">
<path d="M51.0112 157.247C55.5016 155.079 59.7598 153.917 61.618 156.395C63.4761 158.873 61.3083 162.899 57.592 166.228C49.153 173.894 47.9917 170.022 46.8304 167.157C45.5142 163.751 45.0497 160.034 51.0112 157.169V157.247Z" fill="url(#paint6_linear_42_2)"/>
</g>
<g filter="url(#filter6_d_42_2)">
<path d="M37.546 110.6C49.3915 112.923 59.4564 116.639 59.4564 124.15C59.4564 131.66 49.5464 136.383 37.546 137.699C10.1386 140.564 13.3129 131.35 15.171 124.15C17.4163 115.633 21.9068 107.58 37.546 110.677V110.6Z" fill="url(#paint7_linear_42_2)"/>
</g>
<g filter="url(#filter7_d_42_2)">
<path d="M50.7217 192.458C59.9349 185.722 68.9159 181.231 74.1032 185.955C79.2904 190.678 76.271 200.588 69.4578 209.725C53.896 230.475 49.5604 222.423 45.7667 216.461C41.2762 209.415 38.6439 201.208 50.7217 192.381V192.458Z" fill="url(#paint8_linear_42_2)"/>
</g>
<g filter="url(#filter8_d_42_2)">
<path d="M67.354 78.3655C71.6122 83.2435 74.6316 88.1989 72.1541 91.3734C69.6766 94.5479 63.9474 93.3091 58.373 89.8248C45.8307 81.9272 50.2437 79.1398 53.418 76.6621C57.2117 73.7973 61.7796 71.8616 67.354 78.3655Z" fill="url(#paint9_linear_42_2)"/>
</g>
<g filter="url(#filter9_d_42_2)">
<path d="M99.9614 219.956C102.129 213.685 104.916 208.497 108.942 209.039C112.968 209.581 114.904 215.311 114.672 221.969C114.207 237.145 109.407 234.745 105.613 233.119C101.123 231.261 97.0968 228.241 99.9614 219.879V219.956Z" fill="url(#paint10_linear_42_2)"/>
</g>
<g filter="url(#filter10_d_42_2)">
<path d="M159.715 226.89C156.386 215.606 155.168 205.216 161.664 201.887C168.159 198.559 176.685 204.972 183.181 214.795C197.958 237.281 188.539 238.661 181.394 240.203C172.95 242.071 164.018 241.746 159.715 226.89Z" fill="url(#paint11_linear_42_2)"/>
</g>
<g filter="url(#filter11_d_42_2)">
<path d="M224.635 141.304C212.17 139.679 201.563 136.504 201.021 128.761C200.479 121.018 210.389 115.444 222.777 113.276C250.958 108.475 248.326 118.231 246.855 125.819C245.074 134.801 240.971 143.395 224.635 141.304Z" fill="url(#paint12_linear_42_2)"/>
</g>
<defs>
<filter id="filter0_d_42_2" x="45" y="57" width="170" height="170" filterUnits="userSpaceOnUse" color-interpolation-filters="sRGB">
<feFlood flood-opacity="0" result="BackgroundImageFix"/>
<feColorMatrix in="SourceAlpha" type="matrix" values="0 0 0 0 0 0 0 0 0 0 0 0 0 0 0 0 0 0 127 0" result="hardAlpha"/>
<feOffset dy="4"/>
<feGaussianBlur stdDeviation="12.5"/>
<feComposite in2="hardAlpha" operator="out"/>
<feColorMatrix type="matrix" values="0 0 0 0 0.960784 0 0 0 0 0.988235 0 0 0 0 0.184314 0 0 0 0.5 0"/>
<feBlend mode="normal" in2="BackgroundImageFix" result="effect1_dropShadow_42_2"/>
<feBlend mode="normal" in="SourceGraphic" in2="effect1_dropShadow_42_2" result="shape"/>
</filter>
<filter id="filter1_d_42_2" x="117" y="0" width="79.4692" height="96.1005" filterUnits="userSpaceOnUse" color-interpolation-filters="sRGB">
<feFlood flood-opacity="0" result="BackgroundImageFix"/>
<feColorMatrix in="SourceAlpha" type="matrix" values="0 0 0 0 0 0 0 0 0 0 0 0 0 0 0 0 0 0 127 0" result="hardAlpha"/>
<feOffset dy="4"/>
<feGaussianBlur stdDeviation="12.5"/>
<feComposite in2="hardAlpha" operator="out"/>
<feColorMatrix type="matrix" values="0 0 0 0 0.960784 0 0 0 0 0.988235 0 0 0 0 0.184314 0 0 0 0.5 0"/>
<feBlend mode="normal" in2="BackgroundImageFix" result="effect1_dropShadow_42_2"/>
<feBlend mode="normal" in="SourceGraphic" in2="effect1_dropShadow_42_2" result="shape"/>
</filter>
<filter id="filter2_d_42_2" x="161" y="35" width="77.8518" height="78.7506" filterUnits="userSpaceOnUse" color-interpolation-filters="sRGB">
<feFlood flood-opacity="0" result="BackgroundImageFix"/>
<feColorMatrix in="SourceAlpha" type="matrix" values="0 0 0 0 0 0 0 0 0 0 0 0 0 0 0 0 0 0 127 0" result="hardAlpha"/>
<feOffset dy="4"/>
<feGaussianBlur stdDeviation="12.5"/>
<feComposite in2="hardAlpha" operator="out"/>
<feColorMatrix type="matrix" values="0 0 0 0 0.960784 0 0 0 0 0.988235 0 0 0 0 0.184314 0 0 0 0.5 0"/>
<feBlend mode="normal" in2="BackgroundImageFix" result="effect1_dropShadow_42_2"/>
<feBlend mode="normal" in="SourceGraphic" in2="effect1_dropShadow_42_2" result="shape"/>
</filter>
<filter id="filter3_d_42_2" x="169" y="150" width="76.3098" height="70.3333" filterUnits="userSpaceOnUse" color-interpolation-filters="sRGB">
<feFlood flood-opacity="0" result="BackgroundImageFix"/>
<feColorMatrix in="SourceAlpha" type="matrix" values="0 0 0 0 0 0 0 0 0 0 0 0 0 0 0 0 0 0 127 0" result="hardAlpha"/>
<feOffset dy="4"/>
<feGaussianBlur stdDeviation="12.5"/>
<feComposite in2="hardAlpha" operator="out"/>
<feColorMatrix type="matrix" values="0 0 0 0 0.960784 0 0 0 0 0.988235 0 0 0 0 0.184314 0 0 0 0.5 0"/>
<feBlend mode="normal" in2="BackgroundImageFix" result="effect1_dropShadow_42_2"/>
<feBlend mode="normal" in="SourceGraphic" in2="effect1_dropShadow_42_2" result="shape"/>
</filter>
<filter id="filter4_d_42_2" x="61" y="10" width="75.5557" height="86.009" filterUnits="userSpaceOnUse" color-interpolation-filters="sRGB">
<feFlood flood-opacity="0" result="BackgroundImageFix"/>
<feColorMatrix in="SourceAlpha" type="matrix" values="0 0 0 0 0 0 0 0 0 0 0 0 0 0 0 0 0 0 127 0" result="hardAlpha"/>
<feOffset dy="4"/>
<feGaussianBlur stdDeviation="12.5"/>
<feComposite in2="hardAlpha" operator="out"/>
<feColorMatrix type="matrix" values="0 0 0 0 0.960784 0 0 0 0 0.988235 0 0 0 0 0.184314 0 0 0 0.5 0"/>
<feBlend mode="normal" in2="BackgroundImageFix" result="effect1_dropShadow_42_2"/>
<feBlend mode="normal" in="SourceGraphic" in2="effect1_dropShadow_42_2" result="shape"/>
</filter>
<filter id="filter5_d_42_2" x="21" y="134" width="66.2954" height="65.715" filterUnits="userSpaceOnUse" color-interpolation-filters="sRGB">
<feFlood flood-opacity="0" result="BackgroundImageFix"/>
<feColorMatrix in="SourceAlpha" type="matrix" values="0 0 0 0 0 0 0 0 0 0 0 0 0 0 0 0 0 0 127 0" result="hardAlpha"/>
<feOffset dy="4"/>
<feGaussianBlur stdDeviation="12.5"/>
<feComposite in2="hardAlpha" operator="out"/>
<feColorMatrix type="matrix" values="0 0 0 0 0.960784 0 0 0 0 0.988235 0 0 0 0 0.184314 0 0 0 0.5 0"/>
<feBlend mode="normal" in2="BackgroundImageFix" result="effect1_dropShadow_42_2"/>
<feBlend mode="normal" in="SourceGraphic" in2="effect1_dropShadow_42_2" result="shape"/>
</filter>
<filter id="filter6_d_42_2" x="-11" y="89" width="95.4563" height="78.2355" filterUnits="userSpaceOnUse" color-interpolation-filters="sRGB">
<feFlood flood-opacity="0" result="BackgroundImageFix"/>
<feColorMatrix in="SourceAlpha" type="matrix" values="0 0 0 0 0 0 0 0 0 0 0 0 0 0 0 0 0 0 127 0" result="hardAlpha"/>
<feOffset dy="4"/>
<feGaussianBlur stdDeviation="12.5"/>
<feComposite in2="hardAlpha" operator="out"/>
<feColorMatrix type="matrix" values="0 0 0 0 0.960784 0 0 0 0 0.988235 0 0 0 0 0.184314 0 0 0 0.5 0"/>
<feBlend mode="normal" in2="BackgroundImageFix" result="effect1_dropShadow_42_2"/>
<feBlend mode="normal" in="SourceGraphic" in2="effect1_dropShadow_42_2" result="shape"/>
</filter>
<filter id="filter7_d_42_2" x="17" y="163" width="84.7231" height="89.1162" filterUnits="userSpaceOnUse" color-interpolation-filters="sRGB">
<feFlood flood-opacity="0" result="BackgroundImageFix"/>
<feColorMatrix in="SourceAlpha" type="matrix" values="0 0 0 0 0 0 0 0 0 0 0 0 0 0 0 0 0 0 127 0" result="hardAlpha"/>
<feOffset dy="4"/>
<feGaussianBlur stdDeviation="12.5"/>
<feComposite in2="hardAlpha" operator="out"/>
<feColorMatrix type="matrix" values="0 0 0 0 0.960784 0 0 0 0 0.988235 0 0 0 0 0.184314 0 0 0 0.5 0"/>
<feBlend mode="normal" in2="BackgroundImageFix" result="effect1_dropShadow_42_2"/>
<feBlend mode="normal" in="SourceGraphic" in2="effect1_dropShadow_42_2" result="shape"/>
</filter>
<filter id="filter8_d_42_2" x="25" y="53" width="73.0481" height="69.2032" filterUnits="userSpaceOnUse" color-interpolation-filters="sRGB">
<feFlood flood-opacity="0" result="BackgroundImageFix"/>
<feColorMatrix in="SourceAlpha" type="matrix" values="0 0 0 0 0 0 0 0 0 0 0 0 0 0 0 0 0 0 127 0" result="hardAlpha"/>
<feOffset dy="4"/>
<feGaussianBlur stdDeviation="12.5"/>
<feComposite in2="hardAlpha" operator="out"/>
<feColorMatrix type="matrix" values="0 0 0 0 0.960784 0 0 0 0 0.988235 0 0 0 0 0.184314 0 0 0 0.5 0"/>
<feBlend mode="normal" in2="BackgroundImageFix" result="effect1_dropShadow_42_2"/>
<feBlend mode="normal" in="SourceGraphic" in2="effect1_dropShadow_42_2" result="shape"/>
</filter>
<filter id="filter9_d_42_2" x="74" y="188" width="65.6902" height="75.325" filterUnits="userSpaceOnUse" color-interpolation-filters="sRGB">
<feFlood flood-opacity="0" result="BackgroundImageFix"/>
<feColorMatrix in="SourceAlpha" type="matrix" values="0 0 0 0 0 0 0 0 0 0 0 0 0 0 0 0 0 0 127 0" result="hardAlpha"/>
<feOffset dy="4"/>
<feGaussianBlur stdDeviation="12.5"/>
<feComposite in2="hardAlpha" operator="out"/>
<feColorMatrix type="matrix" values="0 0 0 0 0.960784 0 0 0 0 0.988235 0 0 0 0 0.184314 0 0 0 0.5 0"/>
<feBlend mode="normal" in2="BackgroundImageFix" result="effect1_dropShadow_42_2"/>
<feBlend mode="normal" in="SourceGraphic" in2="effect1_dropShadow_42_2" result="shape"/>
</filter>
<filter id="filter10_d_42_2" x="132" y="180" width="84" height="90" filterUnits="userSpaceOnUse" color-interpolation-filters="sRGB">
<feFlood flood-opacity="0" result="BackgroundImageFix"/>
<feColorMatrix in="SourceAlpha" type="matrix" values="0 0 0 0 0 0 0 0 0 0 0 0 0 0 0 0 0 0 127 0" result="hardAlpha"/>
<feOffset dy="4"/>
<feGaussianBlur stdDeviation="12.5"/>
<feComposite in2="hardAlpha" operator="out"/>
<feColorMatrix type="matrix" values="0 0 0 0 0.960784 0 0 0 0 0.988235 0 0 0 0 0.184314 0 0 0 0.5 0"/>
<feBlend mode="normal" in2="BackgroundImageFix" result="effect1_dropShadow_42_2"/>
<feBlend mode="normal" in="SourceGraphic" in2="effect1_dropShadow_42_2" result="shape"/>
</filter>
<filter id="filter11_d_42_2" x="176" y="91" width="96.6768" height="79.6217" filterUnits="userSpaceOnUse" color-interpolation-filters="sRGB">
<feFlood flood-opacity="0" result="BackgroundImageFix"/>
<feColorMatrix in="SourceAlpha" type="matrix" values="0 0 0 0 0 0 0 0 0 0 0 0 0 0 0 0 0 0 127 0" result="hardAlpha"/>
<feOffset dy="4"/>
<feGaussianBlur stdDeviation="12.5"/>
<feComposite in2="hardAlpha" operator="out"/>
<feColorMatrix type="matrix" values="0 0 0 0 0.960784 0 0 0 0 0.988235 0 0 0 0 0.184314 0 0 0 0.5 0"/>
<feBlend mode="normal" in2="BackgroundImageFix" result="effect1_dropShadow_42_2"/>
<feBlend mode="normal" in="SourceGraphic" in2="effect1_dropShadow_42_2" result="shape"/>
</filter>
<radialGradient id="paint0_radial_42_2" cx="0" cy="0" r="1" gradientUnits="userSpaceOnUse" gradientTransform="translate(130.23 145.093) rotate(-14.3804) scale(62.4032 62.399)">
<stop offset="0.19" stop-color="#FA9F45"/>
<stop offset="0.455" stop-color="#FBB92F"/>
<stop offset="1" stop-color="#FFF200"/>
</radialGradient>
<linearGradient id="paint1_linear_42_2" x1="102.331" y1="100.148" x2="141.075" y2="191.59" gradientUnits="userSpaceOnUse">
<stop offset="0.265679" stop-color="#FFF200" stop-opacity="0.3"/>
<stop offset="0.545" stop-color="#FBB92F"/>
<stop offset="0.78" stop-color="#FFF200" stop-opacity="0.3"/>
</linearGradient>
<linearGradient id="paint2_linear_42_2" x1="156.735" y1="67.1005" x2="156.735" y2="21" gradientUnits="userSpaceOnUse">
<stop stop-color="#FFF200"/>
<stop offset="0.6" stop-color="#FDDC12"/>
<stop offset="1" stop-color="#FFC856"/>
</linearGradient>
<linearGradient id="paint3_linear_42_2" x1="192.074" y1="84.3464" x2="213.574" y2="65.3464" gradientUnits="userSpaceOnUse">
<stop stop-color="#FFF200"/>
<stop offset="0.6" stop-color="#FDDC12"/>
<stop offset="1" stop-color="#FFC856"/>
</linearGradient>
<linearGradient id="paint4_linear_42_2" x1="200.342" y1="180.695" x2="207.155" y2="191.333" gradientUnits="userSpaceOnUse">
<stop stop-color="#FFF200"/>
<stop offset="0.63" stop-color="#FDDC12"/>
<stop offset="1" stop-color="#FFC856"/>
</linearGradient>
<linearGradient id="paint5_linear_42_2" x1="98.7778" y1="67.0091" x2="98.7778" y2="31" gradientUnits="userSpaceOnUse">
<stop stop-color="#FFF200"/>
<stop offset="0.605" stop-color="#FDDC12"/>
<stop offset="1" stop-color="#FFC856"/>
</linearGradient>
<linearGradient id="paint6_linear_42_2" x1="62.2954" y1="162.857" x2="45.4841" y2="168.106" gradientUnits="userSpaceOnUse">
<stop stop-color="#FFF200"/>
<stop offset="0.61" stop-color="#FDDC12"/>
<stop offset="1" stop-color="#FFC856"/>
</linearGradient>
<linearGradient id="paint7_linear_42_2" x1="59.4564" y1="124.118" x2="14" y2="124.118" gradientUnits="userSpaceOnUse">
<stop stop-color="#FFF200"/>
<stop offset="0.595" stop-color="#FDDC12"/>
<stop offset="1" stop-color="#FFC856"/>
</linearGradient>
<linearGradient id="paint8_linear_42_2" x1="69.0493" y1="195.866" x2="53.0493" y2="218.366" gradientUnits="userSpaceOnUse">
<stop stop-color="#FFF200"/>
<stop offset="0.6" stop-color="#FDDC12"/>
<stop offset="1" stop-color="#FFC856"/>
</linearGradient>
<linearGradient id="paint9_linear_42_2" x1="67.1328" y1="93.328" x2="54.6328" y2="74.328" gradientUnits="userSpaceOnUse">
<stop stop-color="#FFF200"/>
<stop offset="0.61" stop-color="#FDDC12"/>
<stop offset="1" stop-color="#FFC856"/>
</linearGradient>
<linearGradient id="paint10_linear_42_2" x1="106.845" y1="209" x2="106.845" y2="234.325" gradientUnits="userSpaceOnUse">
<stop stop-color="#FFF200"/>
<stop offset="0.65" stop-color="#FDDC12"/>
<stop offset="1" stop-color="#FFC856"/>
</linearGradient>
<linearGradient id="paint11_linear_42_2" x1="174" y1="201" x2="174" y2="241" gradientUnits="userSpaceOnUse">
<stop stop-color="#FFF200"/>
<stop offset="0.625" stop-color="#FDDC12"/>
<stop offset="1" stop-color="#FFC856"/>
</linearGradient>
<linearGradient id="paint12_linear_42_2" x1="211.197" y1="134.402" x2="247.697" y2="130.902" gradientUnits="userSpaceOnUse">
<stop stop-color="#FFF200"/>
<stop offset="0.595" stop-color="#FDDC12"/>
<stop offset="1" stop-color="#FFC856"/>
</linearGradient>
</defs>
</svg>
