<svg width="175" height="387" viewBox="0 0 175 387" fill="none" xmlns="http://www.w3.org/2000/svg">
<path fill-rule="evenodd" clip-rule="evenodd" d="M87.5 0L104.665 60.5193L92.4382 69.1996L106.534 67.1095L121.363 119.39L104.432 123.601L123.8 127.983L143.186 196.331L123.918 207.009L145.978 206.175L158.982 252.022L145.526 249.482L161.833 262.074L175 308.498H38.8445L42.5363 285.333L24.9957 308.498H0L17.7773 245.821L37.3635 228.11L21.5994 232.345L34.3769 187.296L60.871 174.962L38.08 174.24L59.1092 100.097L80.1684 92.896L61.8674 90.3727L87.5 0Z" fill="#262626"/>
<rect x="62.4719" y="258.229" width="50.4035" height="128.77" fill="#262626"/>
</svg>
